<?xml version="1.0" encoding="iso-8859-1"?>
<!-- Generator: Adobe Illustrator 19.0.0, SVG Export Plug-In . SVG Version: 6.00 Build 0)  -->
<svg version="1.1" id="Capa_1" xmlns="http://www.w3.org/2000/svg" xmlns:xlink="http://www.w3.org/1999/xlink" x="0px" y="0px"
	 viewBox="0 0 512 512" style="enable-background:new 0 0 512 512;" xml:space="preserve">
<g>
	<g>
		<path d="M483.121,134.946L377.055,28.879c-11.715-11.715-30.71-11.715-42.426,0c-11.716,11.715-11.717,30.71,0,42.427
			c-11.717-11.717-30.71-11.717-42.427,0c-11.715,11.715-11.715,30.71,0,42.426c-11.715-11.715-30.71-11.715-42.426,0
			c-11.716,11.715-11.717,30.71,0,42.427l106.066,106.066c11.717,11.717,30.712,11.715,42.426,0
			c11.717-11.717,11.717-30.71,0-42.427c11.717,11.717,30.712,11.715,42.427,0c11.717-11.715,11.717-30.709,0-42.426
			c11.717,11.717,30.712,11.715,42.426,0C494.838,165.655,494.838,146.662,483.121,134.946z"/>
	</g>
</g>
<g>
	<g>
		<path d="M324.022,272.833l-42.435,42.433l-5.658,39.591c-5.911,41.551-34.142,63.028-36.76,66.467
			c-40.935,40.935-107.558,40.935-148.491,0c-40.935-40.935-40.935-107.558,0-148.491c3.696-2.812,24.454-30.757,66.476-36.771
			l39.586-5.652l42.429-42.429l-21.21-21.211l-69.298,9.897c-63.352,9.062-96.92,51.132-100.411,53.738
			c-64.334,64.334-64.334,169.012,0,233.346c64.334,64.332,169.011,64.332,233.346,0c3.54-4.744,44.467-35.588,53.736-100.411
			l9.899-69.298L324.022,272.833z"/>
	</g>
</g>
<g>
	<g>
		<path d="M260.383,209.192l-63.638,63.64c-11.716,11.713-11.718,30.709-0.001,42.426c11.715,11.717,30.71,11.715,42.426,0
			l63.64-63.64L260.383,209.192z"/>
	</g>
</g>
<g>
	<g>
		<path d="M507.608,25.607L486.393,4.394c-5.858-5.858-15.353-5.858-21.213,0l-35.093,35.092l42.427,42.426l35.093-35.09
			C513.466,40.962,513.464,31.464,507.608,25.607z"/>
	</g>
</g>
<g>
</g>
<g>
</g>
<g>
</g>
<g>
</g>
<g>
</g>
<g>
</g>
<g>
</g>
<g>
</g>
<g>
</g>
<g>
</g>
<g>
</g>
<g>
</g>
<g>
</g>
<g>
</g>
<g>
</g>
</svg>
