<?xml version="1.0" encoding="iso-8859-1"?>
<!-- Generator: Adobe Illustrator 19.0.0, SVG Export Plug-In . SVG Version: 6.00 Build 0)  -->
<svg version="1.1" id="Capa_1" xmlns="http://www.w3.org/2000/svg" xmlns:xlink="http://www.w3.org/1999/xlink" x="0px" y="0px"
	 viewBox="0 0 512.001 512.001" style="enable-background:new 0 0 512.001 512.001;" xml:space="preserve">
<g>
	<g>
		<path d="M83.038,428.97c-8.256-8.254-15.441-17.161-21.904-26.416c-9.699,17-17.917,34.809-24.147,53.491
			c-1.791,5.396-0.394,11.332,3.625,15.352c4.019,4.02,9.955,5.417,15.351,3.626c18.681-6.233,36.494-14.451,53.493-24.149
			C100.194,444.41,91.293,437.226,83.038,428.97z"/>
	</g>
</g>
<g>
	<g>
		<path d="M401.226,110.781c-21.801-21.802-48.272-36.03-76.202-43.056L290.74,191.208l30.059,30.058l123.483-34.282
			C437.256,159.054,423.028,132.584,401.226,110.781z"/>
	</g>
</g>
<g>
	<g>
		<path d="M167.888,110.781l-21.212,21.212l67.688,67.687l47.277-15.758l33.561-120.885
			C249.475,60.107,202.759,75.91,167.888,110.781z"/>
	</g>
</g>
<g>
	<g>
		<path d="M448.971,216.806l-120.887,33.563l-15.758,47.277l67.688,67.688l21.212-21.214
			C436.098,309.249,451.902,262.533,448.971,216.806z"/>
	</g>
</g>
<g>
	<g>
		<polygon points="269.902,212.795 222.173,228.704 206.264,276.433 235.576,305.745 283.305,289.836 299.215,242.107 		"/>
	</g>
</g>
<g>
	<g>
		<path d="M291.115,318.858l-47.277,15.758l-33.562,120.887c45.727,2.929,92.443-12.873,127.313-47.744l21.214-21.212
			L291.115,318.858z"/>
	</g>
</g>
<g>
	<g>
		<path d="M184.677,297.272L61.195,331.555c7.026,27.93,21.254,54.401,43.056,76.203c21.801,21.802,48.273,36.03,76.203,43.056
			l34.282-123.483L184.677,297.272z"/>
	</g>
</g>
<g>
	<g>
		<path d="M125.464,153.207l-21.212,21.211C69.38,209.29,53.577,256.006,56.508,301.732l120.885-33.56l15.76-47.277L125.464,153.207
			z"/>
	</g>
</g>
<g>
	<g>
		<path d="M178.494,15.323c-11.717-11.716-30.709-11.716-42.424,0.001c-11.715,11.715-11.717,30.709,0,42.426l21.748,21.748
			c16.064-13.773,33.771-24.63,52.528-32.323L178.494,15.323z"/>
	</g>
</g>
<g>
	<g>
		<path d="M496.685,333.514l-31.85-31.85c-7.692,18.756-18.552,36.463-32.326,52.525l21.75,21.75
			c11.717,11.716,30.711,11.715,42.426,0C508.399,364.225,508.399,345.23,496.685,333.514z"/>
	</g>
</g>
<g>
	<g>
		<path d="M51.221,142.602c-11.718-11.717-30.711-11.717-42.427-0.001c-11.715,11.713-11.715,30.708,0,42.425l31.852,31.852
			c7.69-18.756,18.549-36.464,32.323-52.528L51.221,142.602z"/>
	</g>
</g>
<g>
	<g>
		<path d="M369.408,460.79l-21.748-21.75c-16.066,13.774-33.771,24.635-52.527,32.326l31.85,31.85
			c11.715,11.715,30.709,11.713,42.425,0C381.125,491.499,381.125,472.507,369.408,460.79z"/>
	</g>
</g>
<g>
	<g>
		<path d="M490.064,21.931c-29.239-29.241-76.824-29.241-106.063,0l-25.229,25.243c23.171,9.501,44.882,23.607,63.667,42.393
			c18.786,18.788,32.892,40.498,42.395,63.669l25.229-25.243C519.303,98.755,519.303,51.171,490.064,21.931z M443.653,47.143
			c-5.858,5.858-15.357,5.858-21.214,0s-5.858-15.355,0-21.212c5.859-5.859,15.357-5.858,21.214,0S449.511,41.284,443.653,47.143z
			 M486.078,89.568c-5.858,5.857-15.355,5.857-21.212,0c-5.858-5.858-5.858-15.355,0-21.212c5.858-5.858,15.355-5.858,21.212,0
			C491.936,74.213,491.937,83.71,486.078,89.568z"/>
	</g>
</g>
<g>
</g>
<g>
</g>
<g>
</g>
<g>
</g>
<g>
</g>
<g>
</g>
<g>
</g>
<g>
</g>
<g>
</g>
<g>
</g>
<g>
</g>
<g>
</g>
<g>
</g>
<g>
</g>
<g>
</g>
</svg>
