<?xml version="1.0" encoding="iso-8859-1"?>
<!-- Generator: Adobe Illustrator 19.0.0, SVG Export Plug-In . SVG Version: 6.00 Build 0)  -->
<svg version="1.1" id="Capa_1" xmlns="http://www.w3.org/2000/svg" xmlns:xlink="http://www.w3.org/1999/xlink" x="0px" y="0px"
	 viewBox="0 0 512 512" style="enable-background:new 0 0 512 512;" xml:space="preserve">
<g>
	<g>
		<path d="M498.728,392.861c-17.696-17.696-45.885-17.696-63.581,0l-26.187-26.187c7.458-10.009,11.997-22.314,11.991-35.695
			c0-14.308-5.082-27.839-14.234-38.573c9.445-20.985,14.234-43.273,14.234-66.396c0-26.409-6.392-51.835-18.005-74.669
			l32.201-32.201c17.696,17.696,45.885,17.696,63.581,0c17.696-17.394,17.696-45.885,0-63.581
			c-8.099-8.097-18.595-12.295-29.39-12.896c-0.601-10.797-4.8-21.293-12.896-29.39c-17.696-17.696-46.187-17.696-63.581,0
			c-17.696,17.696-17.696,45.885,0,63.581l-26.711,26.711c-2.042-1.837-3.943-3.798-6.088-5.544
			c-38.703-31.5-89.46-43.625-139.235-33.315c-28.436,5.899-54.011,19.832-75.018,38.817l-26.667-26.667
			c17.696-17.696,17.696-45.885,0-63.581c-17.394-17.696-45.885-17.696-63.581,0c-8.097,8.099-12.295,18.594-12.896,29.39
			c-10.797,0.601-21.293,4.8-29.39,12.896c-17.696,17.696-17.696,46.187,0,63.581c17.696,17.696,45.885,17.696,63.581,0
			l32.073,32.073c-6.991,13.756-12.205,28.529-15.051,44.073c-6.106,33.33-2.123,66.63,11.525,96.973
			c-9.226,10.749-14.351,24.339-14.351,38.719c-0.005,13.388,4.516,25.707,11.956,35.731l-26.151,26.151
			c-17.696-17.695-45.886-17.695-63.581,0c-17.696,17.394-17.696,45.885,0,63.581c8.099,8.097,18.594,12.295,29.39,12.896
			c0.601,10.797,4.8,21.293,12.896,29.39c17.696,17.696,46.187,17.696,63.581,0c17.696-17.696,17.696-45.885,0-63.581l37.866-37.866
			c7.659,13.932,22.033,23.67,39.012,23.67h119.965c16.745,0,30.958-9.518,38.708-23.974l38.17,38.17
			c-17.696,17.696-17.696,45.885,0,63.581c17.394,17.696,45.885,17.696,63.581,0c8.097-8.099,12.295-18.594,12.896-29.39
			c10.797-0.601,21.293-4.8,29.39-12.896C516.423,438.746,516.423,410.255,498.728,392.861z M151.032,256.001V226.01
			c0-8.289,6.707-14.996,14.996-14.996h59.982v0c8.289,0,14.996,6.707,14.996,14.996v29.991c0,24.807-20.18,44.987-44.987,44.987
			S151.032,280.808,151.032,256.001z M296.594,356.577c-5.857,5.857-15.347,5.857-21.205,0L256,337.187l-19.389,19.389
			c-5.857,5.857-15.347,5.857-21.205,0c-5.857-5.857-5.857-15.347,0-21.205l29.991-29.991c5.858-5.857,15.348-5.857,21.206,0
			l29.991,29.991C302.452,341.229,302.452,350.719,296.594,356.577z M360.97,256.001c0,24.807-20.18,44.987-44.987,44.987
			s-44.987-20.18-44.987-44.987V226.01c0-8.289,6.707-14.996,14.996-14.996h59.982c8.289,0,14.996,6.707,14.996,14.996V256.001z"/>
	</g>
</g>
<g>
	<g>
		<path d="M300.988,241.006v14.996c0,8.274,6.721,14.996,14.996,14.996c8.274,0,14.996-6.722,14.996-14.996v-14.996H300.988z"/>
	</g>
</g>
<g>
	<g>
		<path d="M181.023,241.006v14.996c0,8.274,6.721,14.996,14.996,14.996c8.274,0,14.996-6.722,14.996-14.996v-14.996H181.023z"/>
	</g>
</g>
<g>
</g>
<g>
</g>
<g>
</g>
<g>
</g>
<g>
</g>
<g>
</g>
<g>
</g>
<g>
</g>
<g>
</g>
<g>
</g>
<g>
</g>
<g>
</g>
<g>
</g>
<g>
</g>
<g>
</g>
</svg>
