<?xml version="1.0" encoding="iso-8859-1"?>
<!-- Generator: Adobe Illustrator 19.0.0, SVG Export Plug-In . SVG Version: 6.00 Build 0)  -->
<svg version="1.1" id="Capa_1" xmlns="http://www.w3.org/2000/svg" xmlns:xlink="http://www.w3.org/1999/xlink" x="0px" y="0px"
	 viewBox="0 0 512 512" style="enable-background:new 0 0 512 512;" xml:space="preserve">
<g>
	<g>
		<path d="M507.631,208.887c-1.511-7.802-9.269-12.849-17.126-11.646l-146.776,22.315c-7.322,1.122-12.729,7.419-12.729,14.828
			v43.229c0,7.408,5.407,13.707,12.729,14.828l146.776,22.315c7.857,1.203,15.615-3.843,17.126-11.647
			C510.588,287.849,512,272.1,512,256C512,239.898,510.588,224.149,507.631,208.887z"/>
	</g>
</g>
<g>
	<g>
		<path d="M303.112,4.367C287.851,1.41,272.102,0,256,0s-31.851,1.41-47.113,4.367c-7.802,1.513-12.849,9.271-11.646,17.126
			l22.317,146.776c1.121,7.322,7.419,12.731,14.826,12.731h43.231c7.407,0,13.705-5.409,14.826-12.731l22.317-146.776
			C315.961,13.638,310.915,5.88,303.112,4.367z"/>
	</g>
</g>
<g>
	<g>
		<path d="M168.271,219.557L21.495,197.241c-7.857-1.203-15.615,3.843-17.126,11.646C1.412,224.149,0,239.898,0,256
			c0,16.1,1.412,31.849,4.369,47.109c1.511,7.804,9.269,12.851,17.126,11.648l146.776-22.315
			c7.322-1.121,12.729-7.419,12.729-14.828v-43.229C181,226.977,175.593,220.68,168.271,219.557z"/>
	</g>
</g>
<g>
	<g>
		<path d="M314.758,490.505l-22.317-146.776c-1.12-7.322-7.419-12.729-14.825-12.729h-43.231c-7.407,0-13.705,5.407-14.826,12.729
			l-22.317,146.776c-1.203,7.855,3.843,15.613,11.647,17.126C224.149,510.588,239.898,512,256,512s31.851-1.412,47.111-4.369
			C310.915,506.119,315.961,498.36,314.758,490.505z"/>
	</g>
</g>
<g>
	<g>
		<path d="M341.223,47.816l-19.129,124.995c-0.099,0.643-0.483,1.146-0.608,1.778c5.878,4.737,11.179,10.04,15.917,15.917
			c0.625-0.122,1.121-0.503,1.756-0.6l125.021-19.135C441.358,115.087,396.907,70.636,341.223,47.816z"/>
	</g>
</g>
<g>
	<g>
		<path d="M189.905,172.841L170.777,47.818c-55.686,22.82-100.14,67.273-122.961,122.959l124.995,19.129
			c0.643,0.099,1.147,0.484,1.778,0.608c4.737-5.878,10.04-11.179,15.917-15.917C190.383,173.973,190.002,173.476,189.905,172.841z"
			/>
	</g>
</g>
<g>
	<g>
		<path d="M174.597,321.493c-0.625,0.123-1.121,0.504-1.756,0.601L47.82,341.228c22.822,55.684,67.273,100.135,122.957,122.955
			l19.129-124.995c0.099-0.643,0.483-1.146,0.608-1.778C184.636,332.673,179.335,327.37,174.597,321.493z"/>
	</g>
</g>
<g>
	<g>
		<path d="M339.188,322.094c-0.643-0.099-1.146-0.483-1.778-0.608c-4.737,5.878-10.04,11.179-15.917,15.917
			c0.123,0.624,0.504,1.121,0.601,1.756l19.129,125.023c55.686-22.82,100.14-67.273,122.961-122.959L339.188,322.094z"/>
	</g>
</g>
<g>
</g>
<g>
</g>
<g>
</g>
<g>
</g>
<g>
</g>
<g>
</g>
<g>
</g>
<g>
</g>
<g>
</g>
<g>
</g>
<g>
</g>
<g>
</g>
<g>
</g>
<g>
</g>
<g>
</g>
</svg>
