<?xml version="1.0" encoding="iso-8859-1"?>
<!-- Generator: Adobe Illustrator 19.0.0, SVG Export Plug-In . SVG Version: 6.00 Build 0)  -->
<svg version="1.1" id="Capa_1" xmlns="http://www.w3.org/2000/svg" xmlns:xlink="http://www.w3.org/1999/xlink" x="0px" y="0px"
	 viewBox="0 0 512 512" style="enable-background:new 0 0 512 512;" xml:space="preserve">
<g>
	<g>
		<path d="M503.213,199.706L312.294,8.788c-11.715-11.717-30.71-11.717-42.426,0l-10.607,10.605c-5.858,5.858-5.858,15.355,0,21.213
			l212.131,212.133c5.859,5.858,15.355,5.858,21.215,0l10.605-10.607C514.93,230.417,514.93,211.422,503.213,199.706z"/>
	</g>
</g>
<g>
	<g>
		<path d="M248.654,72.426l-55.441,55.441c-6.297,6.297-10.565,14.253-12.305,22.994l-13.934,69.675l124.49,124.49l69.673-13.934
			c8.743-1.741,16.697-6.008,22.996-12.307l55.441-55.441L248.654,72.426z"/>
	</g>
</g>
<g>
	<g>
		<polygon points="103.563,326.831 68.208,376.328 135.673,443.793 185.17,408.438 		"/>
	</g>
</g>
<g>
	<g>
		<polygon points="156.596,252.586 121.24,302.083 209.917,390.761 259.414,355.405 		"/>
	</g>
</g>
<g>
	<g>
		<path d="M44.798,395.348L32.23,401.63c-16.957,8.483-28.423,24.071-31.458,42.768c-3.025,18.706,2.921,37.123,16.313,50.515
			c13.394,13.394,31.811,19.34,50.517,16.315c18.695-3.034,34.285-14.502,42.768-31.458l6.282-12.57L44.798,395.348z"/>
	</g>
</g>
<g>
</g>
<g>
</g>
<g>
</g>
<g>
</g>
<g>
</g>
<g>
</g>
<g>
</g>
<g>
</g>
<g>
</g>
<g>
</g>
<g>
</g>
<g>
</g>
<g>
</g>
<g>
</g>
<g>
</g>
</svg>
