<?xml version="1.0" encoding="iso-8859-1"?>
<!-- Generator: Adobe Illustrator 19.0.0, SVG Export Plug-In . SVG Version: 6.00 Build 0)  -->
<svg version="1.1" id="Capa_1" xmlns="http://www.w3.org/2000/svg" xmlns:xlink="http://www.w3.org/1999/xlink" x="0px" y="0px"
	 viewBox="0 0 512 512" style="enable-background:new 0 0 512 512;" xml:space="preserve">
<g>
	<g>
		<path d="M435.279,161.7C423.297,57.731,359.362,11.658,256.18,0c-98.267,0-179.7,86.146-179.7,170.099
			c-7.804,77.943,51.235,164.672,131.999,183.3c1.657,1.104,14.271,3.497,17.701,3.9V392h-75c-16.569,0-30,13.431-30,30h270
			c0-16.569-13.431-30-30-30h-75v-62c0-16.139-12.894-30-30-30c-69.142,0-124.453-58.293-119.762-128.485
			c4.418-66.083,59.5-110.858,118.563-111.515c58.799-0.601,109.199,41.7,119.399,99.3c4.501,25.199,24.3,44.7,49.501,49.2
			c4.199,0.899,10.199-4.2,11.398-11.4C437.022,195.357,435.903,167.627,435.279,161.7z"/>
	</g>
</g>
<g>
	<g>
		<path d="M406.18,452h-300c-8.291,0-15,6.709-15,15c0,8.291,6.709,15,15,15h15v30h270v-30h15c8.291,0,15-6.709,15-15
			C421.18,458.709,414.471,452,406.18,452z"/>
	</g>
</g>
<g>
</g>
<g>
</g>
<g>
</g>
<g>
</g>
<g>
</g>
<g>
</g>
<g>
</g>
<g>
</g>
<g>
</g>
<g>
</g>
<g>
</g>
<g>
</g>
<g>
</g>
<g>
</g>
<g>
</g>
</svg>
