<?xml version="1.0" encoding="iso-8859-1"?>
<!-- Generator: Adobe Illustrator 19.0.0, SVG Export Plug-In . SVG Version: 6.00 Build 0)  -->
<svg version="1.1" id="Capa_1" xmlns="http://www.w3.org/2000/svg" xmlns:xlink="http://www.w3.org/1999/xlink" x="0px" y="0px"
	 viewBox="0 0 512.001 512.001" style="enable-background:new 0 0 512.001 512.001;" xml:space="preserve">
<g>
	<g>
		<path d="M90,76c-8.276,0-15,6.724-15,15s6.724,15,15,15s15-6.724,15-15S98.276,76,90,76z"/>
	</g>
</g>
<g>
	<g>
		<path d="M90,197c-8.276,0-15,6.724-15,15s6.724,15,15,15s15-6.724,15-15S98.276,197,90,197z"/>
	</g>
</g>
<g>
	<g>
		<path d="M212,197c-8.276,0-15,6.724-15,15s6.724,15,15,15s15-6.724,15-15S220.276,197,212,197z"/>
	</g>
</g>
<g>
	<g>
		<path d="M227,0H75C33.647,0,0,34.647,0,76v151c0,41.353,33.647,75,75,75h152c41.353,0,75-33.647,75-75V76
			C302,34.647,268.353,0,227,0z M90,257c-24.814,0-45-20.186-45-45c0-24.814,20.186-45,45-45s45,20.186,45,45
			C135,236.814,114.814,257,90,257z M90,136c-24.814,0-45-20.186-45-45c0-24.814,20.186-45,45-45s45,20.186,45,45
			C135,115.814,114.814,136,90,136z M212,257c-24.814,0-45-20.186-45-45c0-24.814,20.186-45,45-45c24.814,0,45,20.186,45,45
			C257,236.814,236.814,257,212,257z M212,136c-24.814,0-45-20.186-45-45c0-24.814,20.186-45,45-45c24.814,0,45,20.186,45,45
			C257,115.814,236.814,136,212,136z"/>
	</g>
</g>
<g>
	<g>
		<path d="M212,76c-8.276,0-15,6.724-15,15s6.724,15,15,15s15-6.724,15-15S220.276,76,212,76z"/>
	</g>
</g>
<g>
	<g>
		<path d="M342.608,406.246c-5.855-5.852-15.361-5.852-21.215,0c-5.852,5.852-5.852,15.361,0,21.213
			c5.854,5.852,15.361,5.852,21.215,0C348.46,421.607,348.46,412.098,342.608,406.246z"/>
	</g>
</g>
<g>
	<g>
		<path d="M427.461,321.393c-5.855-5.852-15.363-5.852-21.215,0c-5.852,5.852-5.852,15.361,0,21.213
			c5.852,5.852,15.361,5.852,21.215,0C433.313,336.754,433.313,327.245,427.461,321.393z"/>
	</g>
</g>
<g>
	<g>
		<path d="M490.069,277.938L385.033,172.9c-14.619-14.621-33.827-21.931-53.033-21.931V227c0,57.891-47.109,105-105,105h-76.029
			c0,19.208,7.31,38.412,21.931,53.033L277.937,490.07c29.24,29.24,76.826,29.24,106.066,0l106.066-106.066
			C519.311,354.764,519.311,307.178,490.069,277.938z M363.82,448.673c-17.547,17.545-46.093,17.545-63.64,0
			c-17.547-17.547-17.547-46.093,0-63.64s46.093-17.547,63.64,0C381.367,402.58,381.367,431.126,363.82,448.673z M448.673,363.82
			c-17.547,17.545-46.093,17.545-63.64,0c-17.547-17.547-17.547-46.093,0-63.64c17.547-17.547,46.093-17.547,63.64,0
			C466.22,317.727,466.22,346.273,448.673,363.82z"/>
	</g>
</g>
<g>
</g>
<g>
</g>
<g>
</g>
<g>
</g>
<g>
</g>
<g>
</g>
<g>
</g>
<g>
</g>
<g>
</g>
<g>
</g>
<g>
</g>
<g>
</g>
<g>
</g>
<g>
</g>
<g>
</g>
</svg>
