<?xml version="1.0" encoding="iso-8859-1"?>
<!-- Generator: Adobe Illustrator 19.0.0, SVG Export Plug-In . SVG Version: 6.00 Build 0)  -->
<svg version="1.1" id="Capa_1" xmlns="http://www.w3.org/2000/svg" xmlns:xlink="http://www.w3.org/1999/xlink" x="0px" y="0px"
	 viewBox="0 0 512 512" style="enable-background:new 0 0 512 512;" xml:space="preserve">
<g>
	<g>
		<polygon points="150.058,150.068 166.176,189.243 184.133,184.141 189.234,166.185 		"/>
	</g>
</g>
<g>
	<g>
		<path d="M275.278,296.502c-5.867,2.805-12.352,4.508-19.278,4.508s-13.411-1.703-19.278-4.508l-23.556,23.567L256,479.586
			l42.833-159.517L275.278,296.502z"/>
	</g>
</g>
<g>
	<g>
		<path d="M256,32.433l-42.833,159.516l23.556,23.567c5.867-2.805,12.352-4.508,19.278-4.508s13.411,1.703,19.278,4.508
			l23.556-23.567L256,32.433z"/>
	</g>
</g>
<g>
	<g>
		<polygon points="322.766,166.185 327.868,184.141 345.824,189.243 361.941,150.068 		"/>
	</g>
</g>
<g>
	<g>
		<path d="M374.874,197.496l137.117,38.389C502.193,111.329,400.68,9.798,276.124,0l38.389,137.135l69.269-28.494
			c5.64-2.271,12.056-0.996,16.319,3.267c4.277,4.277,5.566,10.708,3.267,16.319L374.874,197.496z"/>
	</g>
</g>
<g>
	<g>
		<polygon points="345.824,322.775 327.868,327.877 322.766,345.833 361.941,361.951 		"/>
	</g>
</g>
<g>
	<g>
		<path d="M374.874,314.522l28.494,69.269c2.3,5.61,1.011,12.041-3.267,16.319c-4.363,4.363-10.84,5.528-16.319,3.267
			l-69.269-28.494L276.124,512c124.556-9.798,226.069-111.311,235.867-235.867L374.874,314.522z"/>
	</g>
</g>
<g>
	<g>
		<path d="M128.218,108.641l69.269,28.494L235.876,0C111.32,9.798,9.807,111.329,0.009,235.885l137.117-38.389l-28.494-69.269
			c-2.3-5.61-1.011-12.041,3.267-16.319C116.206,107.645,122.651,106.371,128.218,108.641z"/>
	</g>
</g>
<g>
	<g>
		<path d="M320.059,213.175l-23.566,23.556c2.805,5.867,4.508,12.352,4.508,19.278c0,6.925-1.703,13.411-4.508,19.278l23.567,23.556
			l159.516-42.834L320.059,213.175z"/>
	</g>
</g>
<g>
	<g>
		<path d="M197.487,374.883l-69.269,28.494c-5.482,2.261-11.957,1.093-16.319-3.267c-4.277-4.277-5.566-10.708-3.267-16.319
			l28.494-69.269L0.009,276.133C9.807,400.689,111.32,502.202,235.876,512L197.487,374.883z"/>
	</g>
</g>
<g>
	<g>
		<path d="M215.508,236.73l-23.568-23.555L32.424,256.009l159.517,42.834l23.567-23.556
			C209.689,263.118,209.307,249.699,215.508,236.73z"/>
	</g>
</g>
<g>
	<g>
		<polygon points="184.133,327.877 166.176,322.775 150.058,361.951 189.234,345.833 		"/>
	</g>
</g>
<g>
	<g>
		<path d="M256,241.008c-19.85,0-19.842,30.001,0,30.001c8.276,0,15.001-6.724,15.001-15.001
			C271.001,247.733,264.276,241.008,256,241.008z"/>
	</g>
</g>
<g>
</g>
<g>
</g>
<g>
</g>
<g>
</g>
<g>
</g>
<g>
</g>
<g>
</g>
<g>
</g>
<g>
</g>
<g>
</g>
<g>
</g>
<g>
</g>
<g>
</g>
<g>
</g>
<g>
</g>
</svg>
