<?xml version="1.0" encoding="iso-8859-1"?>
<!-- Generator: Adobe Illustrator 19.0.0, SVG Export Plug-In . SVG Version: 6.00 Build 0)  -->
<svg version="1.1" id="Capa_1" xmlns="http://www.w3.org/2000/svg" xmlns:xlink="http://www.w3.org/1999/xlink" x="0px" y="0px"
	 viewBox="0 0 512 512" style="enable-background:new 0 0 512 512;" xml:space="preserve">
<g>
	<g>
		<path d="M511.953,14.712C511.638,1.575,495.62-4.595,486.327,4.697L145.851,345.205l42.426,42.426l157.764-92.662
			c26.206-13.114,49.977-30.256,70.641-50.923C492.862,167.87,513.119,63.348,511.953,14.712z"/>
	</g>
</g>
<g>
	<g>
		<path d="M124.638,366.419l-43.427,43.427c-11.715,11.715-11.715,30.71,0,42.426c11.717,11.717,30.71,11.717,42.427,0
			l43.426-43.426L124.638,366.419z"/>
	</g>
</g>
<g>
	<g>
		<circle cx="59.999" cy="473.485" r="30"/>
	</g>
</g>
<g>
	<g>
		<path d="M209.492,408.846l-21.215,21.213c11.695,11.695,11.695,30.732,0,42.426c-11.692,11.695-31.73,12.695-43.425,1
			c-7.762,7.762-17.194,12.702-27.114,15.313l5.901,5.901c23.399,23.397,62.455,22.397,85.854-1
			C232.891,470.301,232.891,432.245,209.492,408.846z"/>
	</g>
</g>
<g>
	<g>
		<path d="M430.789,409.846l-43.427-43.427l-42.426,42.427l43.426,43.426c11.717,11.717,30.71,11.717,42.427,0
			C442.504,440.557,442.504,421.561,430.789,409.846z"/>
	</g>
</g>
<g>
	<g>
		<circle cx="452.004" cy="473.485" r="30"/>
	</g>
</g>
<g>
	<g>
		<path d="M367.148,473.486c-11.695,11.695-31.732,10.695-43.426-1c-11.695-11.693-11.695-30.731,0-42.426l-21.215-21.213
			c-23.398,23.399-23.398,61.455,0.001,84.854c23.399,23.397,62.455,24.397,85.854,1l5.901-5.901
			C384.341,486.188,374.91,481.248,367.148,473.486z"/>
	</g>
</g>
<g>
	<g>
		<path d="M25.673,4.697C16.38-4.595,0.362,1.575,0.047,14.713C-1.119,63.349,19.138,167.87,95.318,244.048
			c18.549,18.549,39.913,33.777,62.982,46.287l76.491-76.501L25.673,4.697z"/>
	</g>
</g>
<g>
	<g>
		<polygon points="348.932,327.988 285.579,365.229 323.722,387.632 366.148,345.205 		"/>
	</g>
</g>
<g>
</g>
<g>
</g>
<g>
</g>
<g>
</g>
<g>
</g>
<g>
</g>
<g>
</g>
<g>
</g>
<g>
</g>
<g>
</g>
<g>
</g>
<g>
</g>
<g>
</g>
<g>
</g>
<g>
</g>
</svg>
