<?xml version="1.0" encoding="iso-8859-1"?>
<!-- Generator: Adobe Illustrator 19.0.0, SVG Export Plug-In . SVG Version: 6.00 Build 0)  -->
<svg version="1.1" id="Capa_1" xmlns="http://www.w3.org/2000/svg" xmlns:xlink="http://www.w3.org/1999/xlink" x="0px" y="0px"
	 viewBox="0 0 512 512" style="enable-background:new 0 0 512 512;" xml:space="preserve">
<g>
	<g>
		<path d="M309.273,80.146C331.161,67.031,345.998,42.318,345.998,15c0-8.291-6.709-15-15-15c-8.291,0-15,6.709-15,15
			c0,24.814-20.186,46-45,46h-0.383c9.518-12.574,15.383-29.052,15.383-46c0-8.291-6.709-15-15-15s-15,6.709-15,15
			c0,24.814-20.186,46-45,46c-5.152,0-72.319,0-75,0v225c0,66.42,48.3,121.467,111.566,132.631
			c-13.502-21.013-21.566-45.85-21.566-72.631v-71.492c0-42.415,27.823-81.53,69.144-91.091
			c31.304-7.242,60.216,2.379,80.856,20.991V196C375.998,146.472,349.034,103.634,309.273,80.146z M210.998,151
			c-8.284,0-15-6.716-15-15s6.716-15,15-15s15,6.716,15,15S219.282,151,210.998,151z"/>
	</g>
</g>
<g>
	<g>
		<path d="M491.604,395.394l-85.605-85.605V421h75c6.064,0,11.542-3.647,13.857-9.258
			C497.185,406.132,495.896,399.686,491.604,395.394z"/>
	</g>
</g>
<g>
	<g>
		<path d="M375.998,376V271c0-33.137-26.863-60-60-60c-33.137,0-60,26.863-60,60v75c0,57.99,47.01,105,105,105
			c8.284,0,15-6.716,15-15v-30c-41.353,0-75-33.647-75-75v-30c0-8.291,6.709-15,15-15c8.291,0,15,6.709,15,15v30
			C330.998,355.814,351.184,376,375.998,376z"/>
	</g>
</g>
<g>
	<g>
		<path d="M90.998,61c-41.422,0-75,33.578-75,75c0,8.284,6.716,15,15,15h75V61H90.998z"/>
	</g>
</g>
<g>
	<g>
		<path d="M60.998,181c-8.283,0-15,6.716-15,15c0,24.853,20.147,45,45,45h15v-60H60.998z"/>
	</g>
</g>
<g>
	<g>
		<path d="M330.998,482h-45v-23.853c-1.287-0.865-2.347-1.996-3.594-2.912l-26.406-4.655V482h-45c-8.291,0-15,6.709-15,15
			c0,8.291,6.709,15,15,15h120c8.291,0,15-6.709,15-15C345.998,488.709,339.289,482,330.998,482z"/>
	</g>
</g>
<g>
</g>
<g>
</g>
<g>
</g>
<g>
</g>
<g>
</g>
<g>
</g>
<g>
</g>
<g>
</g>
<g>
</g>
<g>
</g>
<g>
</g>
<g>
</g>
<g>
</g>
<g>
</g>
<g>
</g>
</svg>
