<?xml version="1.0" encoding="iso-8859-1"?>
<!-- Generator: Adobe Illustrator 19.0.0, SVG Export Plug-In . SVG Version: 6.00 Build 0)  -->
<svg version="1.1" id="Capa_1" xmlns="http://www.w3.org/2000/svg" xmlns:xlink="http://www.w3.org/1999/xlink" x="0px" y="0px"
	 viewBox="0 0 512 512" style="enable-background:new 0 0 512 512;" xml:space="preserve">
<g>
	<g>
		<path d="M469.791,115.827l-52.028,30.037c5.651,8.223,10.543,16.976,14.899,26.038l52.04-30.046
			C480.187,132.887,475.293,124.155,469.791,115.827z"/>
	</g>
</g>
<g>
	<g>
		<path d="M68.249,200.144L15.383,169.62C5.607,196.645,0,225.645,0,256s5.609,59.355,15.383,86.38l52.866-30.526
			C62.941,294.143,60,275.417,60,256S62.941,217.855,68.249,200.144z"/>
	</g>
</g>
<g>
	<g>
		<path d="M42.207,115.828c-5.502,8.327-10.394,17.057-14.908,26.024l52.04,30.049c4.356-9.062,9.247-17.814,14.897-26.038
			L42.207,115.828z"/>
	</g>
</g>
<g>
	<g>
		<path d="M79.339,340.098l-52.04,30.048c4.514,8.969,9.404,17.699,14.908,26.025l52.029-30.035
			C88.585,357.913,83.695,349.16,79.339,340.098z"/>
	</g>
</g>
<g>
	<g>
		<path d="M256,91c-90.981,0-166,74.019-166,165s75.019,165,166,165s166-74.019,166-165S346.981,91,256,91z M361,301
			c0,8.291-6.709,15-15,15h-15v30c0,8.291-6.709,15-15,15H196c-8.291,0-15-6.709-15-15v-30h-15c-8.291,0-15-6.709-15-15v-60
			c0-57.891,47.109-105,105-105s105,47.109,105,105V301z"/>
	</g>
</g>
<g>
	<g>
		<path d="M256,166c-41.353,0-75,33.647-75,75v45h15c8.291,0,15,6.709,15,15v30h90v-30c0-8.291,6.709-15,15-15h15v-45
			C331,199.647,297.353,166,256,166z M226,256c-8.284,0-15-6.716-15-15c0-8.286,6.716-15,15-15s15,6.714,15,15
			C241,249.284,234.284,256,226,256z M271,301c0,8.291-6.709,15-15,15c-8.291,0-15-6.709-15-15v-30c0-8.291,6.709-15,15-15
			s15,6.709,15,15V301z M286,256c-8.284,0-15-6.716-15-15c0-8.286,6.716-15,15-15s15,6.714,15,15C301,249.284,294.284,256,286,256z"
			/>
	</g>
</g>
<g>
	<g>
		<path d="M398.566,389.697c-25.679,27.178-60.006,46.931-97.566,55.852v62.23c59.604-10.675,113.079-42.982,150.663-87.428
			L398.566,389.697z"/>
	</g>
</g>
<g>
	<g>
		<path d="M496.619,169.622l-52.868,30.524C449.059,217.857,452,236.583,452,256s-2.941,38.143-8.249,55.854l52.868,30.52
			C506.393,315.352,512,286.353,512,256C512,225.647,506.393,196.645,496.619,169.622z"/>
	</g>
</g>
<g>
	<g>
		<path d="M60.337,91.648l53.097,30.654C139.113,95.125,173.44,75.372,211,66.451V4.221C151.396,14.896,97.919,47.203,60.337,91.648
			z"/>
	</g>
</g>
<g>
	<g>
		<path d="M113.434,389.698l-53.097,30.654c37.584,44.445,91.059,76.752,150.663,87.427v-62.23
			C173.44,436.628,139.113,416.875,113.434,389.698z"/>
	</g>
</g>
<g>
	<g>
		<path d="M256,451c-5.063,0-10.032-0.379-15-0.76v61c4.991,0.293,9.937,0.76,15,0.76s10.009-0.467,15-0.76v-61
			C266.032,450.621,261.063,451,256,451z"/>
	</g>
</g>
<g>
	<g>
		<path d="M432.662,340.098c-4.356,9.062-9.249,17.814-14.899,26.038l52.029,30.035c5.505-8.328,10.399-17.06,14.912-26.029
			L432.662,340.098z"/>
	</g>
</g>
<g>
	<g>
		<path d="M256,0c-5.063,0-10.009,0.467-15,0.76v61c4.968-0.381,9.937-0.76,15-0.76s10.032,0.379,15,0.76v-61
			C266.009,0.467,261.063,0,256,0z"/>
	</g>
</g>
<g>
	<g>
		<path d="M301,4.221v62.23c37.56,8.921,71.887,28.676,97.566,55.851l53.095-30.654C414.077,47.205,360.604,14.896,301,4.221z"/>
	</g>
</g>
<g>
</g>
<g>
</g>
<g>
</g>
<g>
</g>
<g>
</g>
<g>
</g>
<g>
</g>
<g>
</g>
<g>
</g>
<g>
</g>
<g>
</g>
<g>
</g>
<g>
</g>
<g>
</g>
<g>
</g>
</svg>
