<?xml version="1.0" encoding="iso-8859-1"?>
<!-- Generator: Adobe Illustrator 19.0.0, SVG Export Plug-In . SVG Version: 6.00 Build 0)  -->
<svg version="1.1" id="Capa_1" xmlns="http://www.w3.org/2000/svg" xmlns:xlink="http://www.w3.org/1999/xlink" x="0px" y="0px"
	 viewBox="0 0 512 512" style="enable-background:new 0 0 512 512;" xml:space="preserve">
<g>
	<g>
		<path d="M406,0h-41.704l-15.938,80.688c-2.726,13.627-6.116,27.393-10.812,40.313H421V15C421,6.709,414.291,0,406,0z"/>
	</g>
</g>
<g>
	<g>
		<path d="M163.642,80.687L147.704,0H106c-8.291,0-15,6.709-15,15v106h83.454C169.757,108.08,166.368,94.314,163.642,80.687z"/>
	</g>
</g>
<g>
	<g>
		<path d="M466,211c-24.814,0-45-20.186-45-45v-15h-99.194c-13.553,17.849-33.713,30-65.806,30s-52.253-12.151-65.806-30H91v15
			c0,24.814-20.186,45-45,45c-8.291,0-15,6.709-15,15v15h450v-15C481,217.709,474.291,211,466,211z"/>
	</g>
</g>
<g>
	<g>
		<path d="M179.531,6.176l13.524,67.623C204.599,131.484,219.892,151,256,151c36.108,0,51.401-19.516,62.944-77.201l13.524-67.623
			C271.449,50.854,240.551,50.854,179.531,6.176z"/>
	</g>
</g>
<g>
	<g>
		<path d="M31,451v46c0,8.291,6.709,15,15,15h420c8.291,0,15-6.709,15-15v-46H31z"/>
	</g>
</g>
<g>
	<g>
		<rect x="31" y="361" width="450" height="60"/>
	</g>
</g>
<g>
	<g>
		<rect x="31" y="271" width="450" height="60"/>
	</g>
</g>
<g>
</g>
<g>
</g>
<g>
</g>
<g>
</g>
<g>
</g>
<g>
</g>
<g>
</g>
<g>
</g>
<g>
</g>
<g>
</g>
<g>
</g>
<g>
</g>
<g>
</g>
<g>
</g>
<g>
</g>
</svg>
