<?xml version="1.0" encoding="iso-8859-1"?>
<!-- Generator: Adobe Illustrator 19.0.0, SVG Export Plug-In . SVG Version: 6.00 Build 0)  -->
<svg version="1.1" id="Capa_1" xmlns="http://www.w3.org/2000/svg" xmlns:xlink="http://www.w3.org/1999/xlink" x="0px" y="0px"
	 viewBox="0 0 512 512" style="enable-background:new 0 0 512 512;" xml:space="preserve">
<g>
	<g>
		<path d="M316,331.927c-8.276,0-15,6.723-15,15c0,8.276,6.724,15,15,15s15-6.724,15-15S324.276,331.927,316,331.927z"/>
	</g>
</g>
<g>
	<g>
		<path d="M181,331.927v15c0,8.276,6.724,15,15,15s15-6.724,15-15v-15H181z"/>
	</g>
</g>
<g>
	<g>
		<path d="M350.707,375.217c-8.258,10.111-20.663,16.71-34.708,16.71c-24.814,0-45-20.186-45-45c0-10.309,3.622-19.7,9.474-27.296
			l-59.725-47.704H97.513c-1.36,4.728-2.798,9.437-3.686,14.268c-6.108,33.34-2.124,66.65,11.528,97.002
			C96.127,393.948,91,407.542,91,421.927c-0.015,33.925,28.389,61.64,62.549,59.941c6.182,17.49,22.881,30.059,42.451,30.059h120
			c19.116,0,35.479-11.982,41.997-30.088c31.842,2.164,58.918-22.403,62.325-53.472L350.707,375.217z M151,346.927v-30
			c0-8.291,6.709-15,15-15h60c8.291,0,15,6.709,15,15v30c0,24.814-20.186,45-45,45C171.186,391.927,151,371.741,151,346.927z
			 M296.605,447.532c-5.859,5.859-15.352,5.859-21.211,0L256,428.138l-19.395,19.395c-5.859,5.859-15.352,5.859-21.211,0
			c-5.859-5.859-5.859-15.352,0-21.211l30-30c5.86-5.86,15.352-5.86,21.211-0.001l30,30
			C302.464,432.18,302.464,441.673,296.605,447.532z"/>
	</g>
</g>
<g>
	<g>
		<path d="M414.472,271.927h-145.66l38.641,30.864c2.772-0.536,5.621-0.864,8.547-0.864c24.227,0,43.901,19.279,44.826,43.284
			l46.853,35.771C416.448,360.674,421,339.203,421,316.927C421,301.458,418.61,286.462,414.472,271.927z"/>
	</g>
</g>
<g>
	<g>
		<path d="M497,120.927h-59.154c-29.517,0-55.137-19.995-62.3-48.647c-10.239-40.942-46.934-71.225-89.224-72.206
			c-3.911,0.029-7.91,1.45-10.811,4.248c-2.886,2.798-4.526,6.65-4.541,10.679c-0.044,8.232-6.753,14.927-14.971,14.927
			c-8.218,0-14.927-6.694-14.971-14.927c-0.015-4.028-1.655-7.881-4.541-10.679c-2.9-2.813-6.841-4.307-10.811-4.248
			c-42.29,0.981-78.984,31.264-89.224,72.221c-7.163,28.638-33.783,48.633-63.3,48.633H15c-8.284,0-15,6.714-15,15
			c0,57.988,47.01,105.999,105,105.999h301c57.99,0,106-48.01,106-106C512,127.641,505.284,120.927,497,120.927z M296.606,155.322
			c5.859,5.859,5.859,15.352,0,21.211s-15.352,5.859-21.211,0L256,157.138l-19.395,19.395c-5.859,5.859-15.352,5.859-21.211,0
			c-5.859-5.859-5.859-15.352,0-21.211l19.395-19.395l-19.394-19.395c-5.859-5.859-5.859-15.352,0-21.211
			c5.859-5.859,15.352-5.859,21.211,0L256,114.716l19.395-19.395c5.859-5.859,15.352-5.859,21.211,0s5.859,15.352,0,21.211
			l-19.395,19.395L296.606,155.322z"/>
	</g>
</g>
<g>
</g>
<g>
</g>
<g>
</g>
<g>
</g>
<g>
</g>
<g>
</g>
<g>
</g>
<g>
</g>
<g>
</g>
<g>
</g>
<g>
</g>
<g>
</g>
<g>
</g>
<g>
</g>
<g>
</g>
</svg>
