<?xml version="1.0" encoding="iso-8859-1"?>
<!-- Generator: Adobe Illustrator 19.0.0, SVG Export Plug-In . SVG Version: 6.00 Build 0)  -->
<svg version="1.1" id="Capa_1" xmlns="http://www.w3.org/2000/svg" xmlns:xlink="http://www.w3.org/1999/xlink" x="0px" y="0px"
	 viewBox="0 0 512.001 512.001" style="enable-background:new 0 0 512.001 512.001;" xml:space="preserve">
<g>
	<g>
		<path d="M259.262,337.593l-84.853-84.853c-3.631-3.633-6.804-7.553-9.532-11.68l-52.412,52.412
			c-17.547,17.547-17.547,46.093,0,63.64l42.425,42.425c17.547,17.547,46.093,17.547,63.64,0l52.412-52.412
			C266.815,344.397,262.893,341.224,259.262,337.593z"/>
	</g>
</g>
<g>
	<g>
		<path d="M503.214,157.279l-22.286-22.286c19.248-29.105,16.075-68.778-9.534-94.385C445.787,15,406.113,11.826,377.009,31.074
			L354.723,8.789c-11.717-11.717-30.712-11.717-42.427,0c-11.715,11.715-11.715,30.71,0,42.426l148.493,148.493
			c11.714,11.714,30.71,11.714,42.425-0.001C514.931,187.99,514.931,168.996,503.214,157.279z"/>
	</g>
</g>
<g>
	<g>
		<path d="M89.25,465.177l44.428-44.428l-42.427-42.426L46.824,422.75l-21.213-21.213c-5.863-5.863-15.352-5.863-21.215,0
			c-5.861,5.863-5.861,15.352,0,21.213l84.854,84.853c5.863,5.863,15.352,5.863,21.215,0c5.861-5.861,5.861-15.35,0-21.213
			L89.25,465.177z"/>
	</g>
</g>
<g>
	<g>
		<path d="M291.082,72.427l-95.46,95.46c-17.545,17.547-17.545,46.093,0,63.64l84.853,84.851c17.547,17.547,46.093,17.547,63.64,0
			l95.46-95.458L291.082,72.427z"/>
	</g>
</g>
<g>
</g>
<g>
</g>
<g>
</g>
<g>
</g>
<g>
</g>
<g>
</g>
<g>
</g>
<g>
</g>
<g>
</g>
<g>
</g>
<g>
</g>
<g>
</g>
<g>
</g>
<g>
</g>
<g>
</g>
</svg>
