<?xml version="1.0" encoding="iso-8859-1"?>
<!-- Generator: Adobe Illustrator 19.0.0, SVG Export Plug-In . SVG Version: 6.00 Build 0)  -->
<svg version="1.1" id="Capa_1" xmlns="http://www.w3.org/2000/svg" xmlns:xlink="http://www.w3.org/1999/xlink" x="0px" y="0px"
	 viewBox="0 0 512 512" style="enable-background:new 0 0 512 512;" xml:space="preserve">
<g>
	<g>
		<path d="M471.7,150H357.113c2.574,34.219,3.887,70.642,3.887,106c0,35.358-1.313,71.781-3.887,106H471.7
			c6-33.3,9.3-69.401,9.3-106S477.7,183.3,471.7,150z"/>
	</g>
</g>
<g>
	<g>
		<path d="M154.887,150H40.3c-6,33.3-9.3,69.401-9.3,106s3.3,72.7,9.3,106h114.587C152.313,327.781,151,291.358,151,256
			C151,220.642,152.313,184.219,154.887,150z"/>
	</g>
</g>
<g>
	<g>
		<path d="M327.037,150H184.962C182.465,182.395,181,218.423,181,256c0,37.577,1.465,73.605,3.962,106h142.075
			c2.498-32.395,3.962-68.423,3.962-106C330.999,218.423,329.534,182.395,327.037,150z M256,301c-24.814,0-45-20.186-45-45
			c0-24.814,20.186-45,45-45c24.814,0,45,20.186,45,45C301,280.814,280.814,301,256,301z"/>
	</g>
</g>
<g>
	<g>
		<path d="M256,241c-8.276,0-15,6.724-15,15s6.724,15,15,15s15-6.724,15-15S264.276,241,256,241z"/>
	</g>
</g>
<g>
	<g>
		<path d="M451,392H61c-16.569,0-30,13.431-30,30c0,16.569,13.431,30,30,30h390c16.569,0,30-13.431,30-30
			C481,405.431,467.569,392,451,392z"/>
	</g>
</g>
<g>
	<g>
		<path d="M451,60H61c-16.569,0-30,13.431-30,30c0,16.569,13.431,30,30,30h390c16.569,0,30-13.431,30-30
			C481,73.431,467.569,60,451,60z"/>
	</g>
</g>
<g>
	<g>
		<path d="M100.6,0c-5.7,0-10.8,2.999-13.5,8.101C83.5,15.3,79.9,22.5,76.601,30h93.939c2.039-10.367,4.214-20.414,6.571-30H100.6z"
			/>
	</g>
</g>
<g>
	<g>
		<path d="M424.9,8.101C422.199,2.999,417.1,0,411.4,0h-76.511c2.357,9.586,4.532,19.633,6.572,30h93.938
			C432.099,22.5,428.5,15.3,424.9,8.101z"/>
	</g>
</g>
<g>
	<g>
		<path d="M304.012,0h-96.024c-2.399,9.359-4.706,19.33-6.89,30h109.805C308.718,19.33,306.411,9.359,304.012,0z"/>
	</g>
</g>
<g>
	<g>
		<path d="M201.098,482c2.184,10.67,4.492,20.641,6.89,30h96.024c2.399-9.359,4.706-19.33,6.89-30H201.098z"/>
	</g>
</g>
<g>
	<g>
		<path d="M170.539,482H76.601c3.3,7.5,6.899,14.7,10.499,21.899C89.801,509,94.9,512,100.6,512h76.511
			C174.754,502.414,172.579,492.367,170.539,482z"/>
	</g>
</g>
<g>
	<g>
		<path d="M341.46,482c-2.04,10.367-4.215,20.414-6.572,30H411.4c5.7,0,10.799-2.999,13.5-8.101c3.6-7.2,7.2-14.399,10.499-21.899
			H341.46z"/>
	</g>
</g>
<g>
</g>
<g>
</g>
<g>
</g>
<g>
</g>
<g>
</g>
<g>
</g>
<g>
</g>
<g>
</g>
<g>
</g>
<g>
</g>
<g>
</g>
<g>
</g>
<g>
</g>
<g>
</g>
<g>
</g>
</svg>
