<?xml version="1.0" encoding="iso-8859-1"?>
<!-- Generator: Adobe Illustrator 19.0.0, SVG Export Plug-In . SVG Version: 6.00 Build 0)  -->
<svg version="1.1" id="Capa_1" xmlns="http://www.w3.org/2000/svg" xmlns:xlink="http://www.w3.org/1999/xlink" x="0px" y="0px"
	 viewBox="0 0 512.001 512.001" style="enable-background:new 0 0 512.001 512.001;" xml:space="preserve">
<g>
	<g>
		<path d="M507.605,46.823L465.177,4.396c-5.863-5.861-15.35-5.861-21.213,0l-33.821,33.821c-11.715-11.715-30.71-11.715-42.426,0
			c-11.717,11.717-11.717,30.71,0,42.427l63.638,63.638c11.717,11.717,30.71,11.717,42.427,0c11.715-11.715,11.715-30.71,0-42.426
			l33.821-33.821C513.466,62.173,513.466,52.686,507.605,46.823z"/>
	</g>
</g>
<g>
	<g>
		<path d="M272.258,239.742c-5.852-5.852-15.361-5.852-21.213,0c-5.852,5.852-5.852,15.361,0,21.213
			c5.852,5.852,15.361,5.852,21.213,0C278.11,255.103,278.11,245.594,272.258,239.742z"/>
	</g>
</g>
<g>
	<g>
		<path d="M229.832,282.168c-3.737-3.735-6.508-8.036-8.654-12.559l-76.199,76.199c-5.852,5.852-5.852,15.361,0,21.213
			c5.852,5.852,15.361,5.852,21.213,0l76.199-76.199C237.868,288.676,233.567,285.906,229.832,282.168z"/>
	</g>
</g>
<g>
	<g>
		<path d="M346.504,101.857l-8.036,8.038c-26.186,26.184-60.989,40.602-98.029,40.602c-45.037,0-87.391,17.538-119.242,49.387
			L13.16,307.922c-17.547,17.547-17.547,46.093,0,63.64L140.439,498.84c17.547,17.547,46.093,17.547,63.64,0l108.038-108.036
			c31.849-31.851,49.387-74.205,49.387-119.242c0-37.04,14.418-71.843,40.602-98.029l8.038-8.036L346.504,101.857z M293.471,282.168
			L187.405,388.235c-17.547,17.545-46.093,17.545-63.64,0c-17.545-17.547-17.545-46.093,0-63.64L229.833,218.53
			c17.545-17.547,46.093-17.547,63.638,0C311.018,236.075,311.018,264.623,293.471,282.168z"/>
	</g>
</g>
<g>
</g>
<g>
</g>
<g>
</g>
<g>
</g>
<g>
</g>
<g>
</g>
<g>
</g>
<g>
</g>
<g>
</g>
<g>
</g>
<g>
</g>
<g>
</g>
<g>
</g>
<g>
</g>
<g>
</g>
</svg>
