<?xml version="1.0" encoding="iso-8859-1"?>
<!-- Generator: Adobe Illustrator 19.0.0, SVG Export Plug-In . SVG Version: 6.00 Build 0)  -->
<svg version="1.1" id="Capa_1" xmlns="http://www.w3.org/2000/svg" xmlns:xlink="http://www.w3.org/1999/xlink" x="0px" y="0px"
	 viewBox="0 0 512 512" style="enable-background:new 0 0 512 512;" xml:space="preserve">
<g>
	<g>
		<path d="M256,0c-8.291,0-15,6.709-15,15v46c0,8.291,6.709,15,15,15s15-6.709,15-15V15C271,6.709,264.291,0,256,0z"/>
	</g>
</g>
<g>
	<g>
		<path d="M206.606,65.394l-30-30c-5.859-5.859-15.352-5.859-21.211,0s-5.859,15.352,0,21.211l30,30
			c5.859,5.859,15.352,5.859,21.211,0S212.465,71.253,206.606,65.394z"/>
	</g>
</g>
<g>
	<g>
		<path d="M356.605,35.394c-5.859-5.859-15.352-5.859-21.211,0l-30,30c-5.859,5.859-5.859,15.352,0,21.211s15.352,5.86,21.211,0
			l30-30C362.464,50.746,362.464,41.253,356.605,35.394z"/>
	</g>
</g>
<g>
	<g>
		<rect x="90" y="272" width="332" height="30"/>
	</g>
</g>
<g>
	<g>
		<path d="M271,332v15c0,8.291-6.709,15-15,15c-8.291,0-15-6.709-15-15v-15h-30v15c0,24.814,20.186,45,45,45
			c24.814,0,45-20.186,45-45v-15H271z"/>
	</g>
</g>
<g>
	<g>
		<path d="M331,332v15c0,41.353-33.647,75-75,75c-41.353,0-75-33.647-75-75v-15H90v91.749c18.499,18.939,30,44.753,30,73.251v15h272
			v-15c0-28.499,11.501-54.313,30-73.251V332H331z"/>
	</g>
</g>
<g>
	<g>
		<path d="M452,131.532v271C465.693,395.977,480.835,392,497,392h15V227C512,185.274,487.345,148.453,452,131.532z"/>
	</g>
</g>
<g>
	<g>
		<path d="M15,422H0v75c0,8.291,6.709,15,15,15h75v-15C90,455.647,56.353,422,15,422z"/>
	</g>
</g>
<g>
	<g>
		<path d="M497,422c-41.353,0-75,33.647-75,75v15h75c8.291,0,15-6.709,15-15v-75H497z"/>
	</g>
</g>
<g>
	<g>
		<path d="M0,227v165h15c16.165,0,31.307,3.977,45,10.532v-271C24.655,148.453,0,185.274,0,227z"/>
	</g>
</g>
<g>
	<g>
		<path d="M407,121H105c-5.136,0-10.058,0.8-15,1.516V242h332V122.516C417.058,121.8,412.136,121,407,121z"/>
	</g>
</g>
<g>
</g>
<g>
</g>
<g>
</g>
<g>
</g>
<g>
</g>
<g>
</g>
<g>
</g>
<g>
</g>
<g>
</g>
<g>
</g>
<g>
</g>
<g>
</g>
<g>
</g>
<g>
</g>
<g>
</g>
</svg>
