<?xml version="1.0" encoding="iso-8859-1"?>
<!-- Generator: Adobe Illustrator 19.0.0, SVG Export Plug-In . SVG Version: 6.00 Build 0)  -->
<svg version="1.1" id="Capa_1" xmlns="http://www.w3.org/2000/svg" xmlns:xlink="http://www.w3.org/1999/xlink" x="0px" y="0px"
	 viewBox="0 0 512 512" style="enable-background:new 0 0 512 512;" xml:space="preserve">
<g>
	<g>
		<path d="M503.709,151.191l-36.522-17.754l-17.769-35.537c-5.098-10.166-21.768-10.166-26.836,0l-17.754,35.537l-35.537,17.754
			c-5.083,2.534-8.291,7.734-8.291,13.418c0,5.684,3.208,10.884,8.291,13.418l35.537,17.754l17.754,35.537
			c2.534,5.083,7.734,8.291,13.418,8.291c5.684,0,10.869-3.208,13.418-8.291l17.769-35.537l36.522-17.754
			c5.083-2.549,8.291-7.734,8.291-13.418C512,158.925,508.792,153.74,503.709,151.191z"/>
	</g>
</g>
<g>
	<g>
		<path d="M142.709,151.191l-35.522-17.754L89.418,97.899c-5.098-10.166-21.768-10.166-26.836,0l-17.754,35.537L8.291,151.191
			C3.208,153.725,0,158.925,0,164.608c0,5.683,3.208,10.884,8.291,13.418l36.537,17.754l17.754,35.537
			c2.534,5.083,7.734,8.291,13.418,8.291s10.869-3.208,13.418-8.291l17.769-35.537l35.522-17.754
			c5.083-2.549,8.291-7.734,8.291-13.418C151,158.925,147.792,153.74,142.709,151.191z"/>
	</g>
</g>
<g>
	<g>
		<path d="M350.644,91.777l-60.381-20.142l-20.142-62.45c-4.072-12.246-24.375-12.246-28.447,0l-20.142,62.45l-60.381,20.142
			c-6.123,2.036-10.254,7.764-10.254,14.224s4.131,12.188,10.254,14.224l60.381,20.142l20.142,60.381
			c2.036,6.123,7.764,10.254,14.224,10.254s12.188-4.131,14.224-10.254l20.142-60.381l60.381-20.142
			c6.123-2.036,10.254-7.764,10.254-14.224S356.767,93.813,350.644,91.777z"/>
	</g>
</g>
<g>
	<g>
		<polygon points="97.87,451 53.925,451 30.897,485.541 30.897,512 120.897,512 120.897,485.541 		"/>
	</g>
</g>
<g>
	<g>
		<polygon points="217.87,451 173.925,451 150.897,485.541 150.897,512 240.897,512 240.897,485.541 		"/>
	</g>
</g>
<g>
	<g>
		<polygon points="337.87,451 293.925,451 270.897,485.541 270.897,512 360.897,512 360.897,485.541 		"/>
	</g>
</g>
<g>
	<g>
		<polygon points="457.87,451 413.925,451 390.897,485.541 390.897,512 480.897,512 480.897,485.541 		"/>
	</g>
</g>
<g>
	<g>
		<polygon points="157.87,361 113.925,361 90.897,395.541 90.897,421 180.897,421 180.897,395.541 		"/>
	</g>
</g>
<g>
	<g>
		<polygon points="277.87,361 233.925,361 210.897,395.541 210.897,421 300.897,421 300.897,395.541 		"/>
	</g>
</g>
<g>
	<g>
		<polygon points="397.87,361 353.925,361 330.897,395.541 330.897,421 420.897,421 420.897,395.541 		"/>
	</g>
</g>
<g>
	<g>
		<polygon points="217.87,271 173.925,271 150.897,305.541 150.897,331 240.897,331 240.897,305.541 		"/>
	</g>
</g>
<g>
	<g>
		<polygon points="337.87,271 293.925,271 270.897,305.541 270.897,331 360.897,331 360.897,305.541 		"/>
	</g>
</g>
<g>
</g>
<g>
</g>
<g>
</g>
<g>
</g>
<g>
</g>
<g>
</g>
<g>
</g>
<g>
</g>
<g>
</g>
<g>
</g>
<g>
</g>
<g>
</g>
<g>
</g>
<g>
</g>
<g>
</g>
</svg>
