<?xml version="1.0" encoding="iso-8859-1"?>
<!-- Generator: Adobe Illustrator 19.0.0, SVG Export Plug-In . SVG Version: 6.00 Build 0)  -->
<svg version="1.1" id="Capa_1" xmlns="http://www.w3.org/2000/svg" xmlns:xlink="http://www.w3.org/1999/xlink" x="0px" y="0px"
	 viewBox="0 0 512 512" style="enable-background:new 0 0 512 512;" xml:space="preserve">
<g>
	<g>
		<path d="M497,166h-43.568c-21.899,0-41.265-13.96-48.208-34.746C394.208,98.207,363.402,76,328.568,76H45
			C20.186,76,0,96.186,0,121v270c0,24.814,20.186,45,45,45h283.568c34.834,0,65.64-22.207,76.655-55.254
			C412.167,359.96,431.532,346,453.432,346H497c8.291,0,15-6.709,15-15V181C512,172.709,505.291,166,497,166z M482,316h-28.568
			c-24.888,0-47.576,11.472-62.604,30h-23.176c12.012-17.906,19.301-38.412,21.742-60H406c8.291,0,15-6.709,15-15
			c0-8.291-6.709-15-15-15h-90c-3.984,0-7.793,1.582-10.605,4.395L279.789,286H241v-30h15c24.814,0,45-20.186,45-45
			c0-24.814-20.186-45-45-45h-15v-15c0-8.291-6.709-15-15-15s-15,6.709-15,15v15h-45c-6.064,0-11.543,3.647-13.857,9.258
			c-2.329,5.61-1.04,12.056,3.252,16.348c10.693,10.693,10.693,28.096,0,38.789c-4.292,4.292-5.581,10.737-3.252,16.348
			c2.314,5.61,7.793,9.258,13.857,9.258h45v30h-38.789l-25.605-25.605C143.793,257.582,139.984,256,136,256H75
			c-8.291,0-15,6.709-15,15c0,27.034,8.553,52.945,23.348,75H30V121c0-8.276,6.724-15,15-15h283.568
			c21.899,0,41.265,13.96,48.208,34.746C387.792,173.793,418.598,196,453.432,196H482V316z"/>
	</g>
</g>
<g>
</g>
<g>
</g>
<g>
</g>
<g>
</g>
<g>
</g>
<g>
</g>
<g>
</g>
<g>
</g>
<g>
</g>
<g>
</g>
<g>
</g>
<g>
</g>
<g>
</g>
<g>
</g>
<g>
</g>
</svg>
