<?xml version="1.0" encoding="iso-8859-1"?>
<!-- Generator: Adobe Illustrator 19.0.0, SVG Export Plug-In . SVG Version: 6.00 Build 0)  -->
<svg version="1.1" id="Capa_1" xmlns="http://www.w3.org/2000/svg" xmlns:xlink="http://www.w3.org/1999/xlink" x="0px" y="0px"
	 viewBox="0 0 512 512" style="enable-background:new 0 0 512 512;" xml:space="preserve">
<g>
	<g>
		<path d="M467,482h-46v-62.388c45.753-6.652,82.843-42.795,89.484-88.612H354.168c3.704,15.059,5.832,30.602,5.832,46.509
			c0,10.706-1.159,21.176-2.836,31.505c10.259,5.279,22.409,8.289,33.836,10.074V482h-46c-8.291,0-15,6.709-15,15
			c0,8.291,6.709,15,15,15h122c8.291,0,15-6.709,15-15C482,488.709,475.291,482,467,482z"/>
	</g>
</g>
<g>
	<g>
		<polygon points="214.204,121 115.796,121 109.384,146.646 165,177.968 220.616,146.646 		"/>
	</g>
</g>
<g>
	<g>
		<path d="M229.57,182.465l-1.34-5.361l-54.91,31.377c-2.52,1.685-5.42,2.52-8.32,2.52s-5.801-0.835-8.32-2.52l-54.913-31.379
			l-1.337,5.349c-5.513,21.984-16.675,42.036-32.082,58.55h193.304V241C246.246,224.486,235.083,204.434,229.57,182.465z"/>
	</g>
</g>
<g>
	<g>
		<path d="M289.592,271H40.408C14.665,300.696,0,337.823,0,377.509c0,14.97,2.206,29.513,6.03,43.491h317.94
			c3.823-13.978,6.03-28.521,6.03-43.491C330,337.823,315.335,300.696,289.592,271z M205.606,365.395
			c5.859,5.859,5.859,15.352,0,21.211s-15.352,5.859-21.211,0L165,367.211l-19.395,19.395c-5.859,5.859-15.352,5.859-21.211,0
			c-5.859-5.859-5.859-15.352,0-21.211L143.789,346l-19.394-19.395c-5.859-5.859-5.859-15.352,0-21.211s15.352-5.859,21.211,0
			L165,324.789l19.395-19.395c5.859-5.859,15.352-5.859,21.211,0s5.859,15.352,0,21.211L186.211,346L205.606,365.395z"/>
	</g>
</g>
<g>
	<g>
		<path d="M17.331,451c11.069,22,27.16,42.494,47.606,57.968c2.607,1.963,5.786,3.032,9.053,3.032h182.021
			c3.267,0,6.445-1.069,9.053-3.032C285.509,493.494,301.6,473,312.669,451H17.331z"/>
	</g>
</g>
<g>
	<g>
		<path d="M235.605,34.395l-30-30C202.793,1.582,198.984,0,195,0h-60c-3.984,0-7.793,1.582-10.605,4.395l-30,30
			c-4.57,4.57-5.698,11.543-2.813,17.314L110.728,91h108.545l19.146-39.291C241.304,45.938,240.176,38.965,235.605,34.395z"/>
	</g>
</g>
<g>
	<g>
		<path d="M497,211H315c-8.291,0-15,6.709-15,15v11.367l3.325,3.325c17.622,17.622,31.322,38.09,40.895,60.308H512v-75
			C512,217.709,505.291,211,497,211z"/>
	</g>
</g>
<g>
</g>
<g>
</g>
<g>
</g>
<g>
</g>
<g>
</g>
<g>
</g>
<g>
</g>
<g>
</g>
<g>
</g>
<g>
</g>
<g>
</g>
<g>
</g>
<g>
</g>
<g>
</g>
<g>
</g>
</svg>
