<?xml version="1.0" encoding="iso-8859-1"?>
<!-- Generator: Adobe Illustrator 19.0.0, SVG Export Plug-In . SVG Version: 6.00 Build 0)  -->
<svg version="1.1" id="Capa_1" xmlns="http://www.w3.org/2000/svg" xmlns:xlink="http://www.w3.org/1999/xlink" x="0px" y="0px"
	 viewBox="0 0 512 512" style="enable-background:new 0 0 512 512;" xml:space="preserve">
<g>
	<g>
		<path d="M361.15,316c-4.424,39.331-26.089,75.132-59.15,97.266v21.491c5.001,0.478,9.961,1.243,15,1.243
			c52.192,0,101.235-20.361,138.091-57.319c18.186-18.237,31.89-39.602,41.484-62.681H361.15z"/>
	</g>
</g>
<g>
	<g>
		<path d="M437,16c-20.744,0-38.077,14.178-43.264,33.303C388.552,47.214,382.923,46,377,46c-24.814,0-45,20.186-45,45
			c0,8.291,6.709,15,15,15c8.291,0,15-6.709,15-15c0-8.276,6.724-15,15-15s15,6.724,15,15v60c0,8.291,6.709,15,15,15
			c8.291,0,15-6.709,15-15c0-3.717,0-85.906,0-90c0-8.276,6.724-15,15-15s15,6.724,15,15c0,8.291,6.709,15,15,15
			c8.291,0,15-6.709,15-15C482,36.186,461.814,16,437,16z"/>
	</g>
</g>
<g>
	<g>
		<path d="M467,196H173.101c-26.7,0-48.9-19.801-52.5-45.3C138.9,136.599,150,114.399,150,91V31c0-8.401-6.599-15-15-15
			c-24.6,0-46.199,11.999-60,30.599C61.199,27.999,39.6,16,15,16C6.599,16,0,22.599,0,31v60c0,23.699,11.4,45.899,30,60v60
			c0,106.8,78.5,199.499,182,220.499V481c0,8.399,6.599,15,15,15c24.901,0,45-20.101,45-45v-46.201c0-5.099,2.999-10.199,7.5-12.9
			C311.901,373.299,332,338.5,332,301c0-8.401,6.599-15,15-15h159c3.6-14.7,6-30,6-45.601C512,215.799,491.6,196,467,196z M287,286
			c-8.284,0-15-6.716-15-15c0-8.286,6.716-15,15-15s15,6.714,15,15C302,279.284,295.284,286,287,286z"/>
	</g>
</g>
<g>
</g>
<g>
</g>
<g>
</g>
<g>
</g>
<g>
</g>
<g>
</g>
<g>
</g>
<g>
</g>
<g>
</g>
<g>
</g>
<g>
</g>
<g>
</g>
<g>
</g>
<g>
</g>
<g>
</g>
</svg>
