<?xml version="1.0" encoding="iso-8859-1"?>
<!-- Generator: Adobe Illustrator 19.0.0, SVG Export Plug-In . SVG Version: 6.00 Build 0)  -->
<svg version="1.1" id="Capa_1" xmlns="http://www.w3.org/2000/svg" xmlns:xlink="http://www.w3.org/1999/xlink" x="0px" y="0px"
	 viewBox="0 0 512 512" style="enable-background:new 0 0 512 512;" xml:space="preserve">
<g>
	<g>
		<path d="M330.994,271.001c0-8.291,6.709-15,15-15H512c0-99.415-81.591-180.006-181.006-180.006
			c-78.342,0-145.807,50.136-170.542,120.004h155.542c8.291,0,15,6.709,15,15s-6.709,15-15,15H152.688
			c-1.644,9.776-2.699,19.756-2.699,30.001h106.003c8.291,0,15,6.709,15,15c0,8.291-6.709,15-15,15H149.989v60.002h347.011
			c8.284,0,15-6.716,15-15v-45.001H345.995C337.703,286.001,330.994,279.292,330.994,271.001z"/>
	</g>
</g>
<g>
	<g>
		<path d="M63.282,342.693c-2.183,7.441-3.296,16.026-3.296,25.519l0.016,52.768c0.006,13.362,16.159,20.051,25.609,10.602
			c2.036-3,34.545-29.185,34.375-79.716l0.002-80.236C116.97,274.149,75.129,290.493,63.282,342.693z"/>
	</g>
</g>
<g>
	<g>
		<path d="M0.191,342.381c-0.76,4.719,0.776,9.516,4.133,12.918c3.357,3.402,8.134,5.004,12.861,4.308
			c4.667-0.685,9.247-1.613,13.524-2.752c0.657-7.982,1.752-15.664,3.787-22.602c15.984-70.993,76.767-90.295,79.768-92.675
			C57.062,244.336,9.099,286.977,0.191,342.381z"/>
	</g>
</g>
<g>
</g>
<g>
</g>
<g>
</g>
<g>
</g>
<g>
</g>
<g>
</g>
<g>
</g>
<g>
</g>
<g>
</g>
<g>
</g>
<g>
</g>
<g>
</g>
<g>
</g>
<g>
</g>
<g>
</g>
</svg>
