<?xml version="1.0" encoding="iso-8859-1"?>
<!-- Generator: Adobe Illustrator 19.0.0, SVG Export Plug-In . SVG Version: 6.00 Build 0)  -->
<svg version="1.1" id="Capa_1" xmlns="http://www.w3.org/2000/svg" xmlns:xlink="http://www.w3.org/1999/xlink" x="0px" y="0px"
	 viewBox="0 0 512 512" style="enable-background:new 0 0 512 512;" xml:space="preserve">
<g>
	<g>
		<path d="M421,331c-49.706,0-90,40.294-90,90s40.294,91,90,91s91-41.294,91-91S470.706,331,421,331z M421,406
			c-8.276,0-15,6.724-15,15c0,8.291-6.709,15-15,15c-8.291,0-15-6.709-15-15c0-24.814,20.186-45,45-45c8.291,0,15,6.709,15,15
			C436,399.291,429.291,406,421,406z"/>
	</g>
</g>
<g>
	<g>
		<path d="M256,0c-49.706,0-90,41.294-90,91c0,17.021,4.999,32.761,13.207,46.335c30.591,3.409,57.545,18.104,76.793,40.137
			c19.248-22.034,46.201-36.728,76.793-40.137C341.001,123.761,346,108.021,346,91C346,41.294,305.706,0,256,0z M256,76
			c-8.276,0-15,6.724-15,15c0,8.291-6.709,15-15,15s-15-6.709-15-15c0-24.814,20.186-45,45-45c8.291,0,15,6.709,15,15
			S264.291,76,256,76z"/>
	</g>
</g>
<g>
	<g>
		<path d="M346,166c-49.706,0-90,40.294-90,90c0,16.981,4.792,32.787,12.975,46.313c26.796,2.933,50.978,14.317,69.525,31.966
			c21.33-20.305,52.061-33.704,84.886-33.038C431.203,287.904,436,272.577,436,256C436,206.294,395.706,166,346,166z M346,241
			c-8.276,0-15,6.724-15,15c0,8.291-6.709,15-15,15c-8.291,0-15-6.709-15-15c0-24.814,20.186-45,45-45c8.291,0,15,6.709,15,15
			S354.291,241,346,241z"/>
	</g>
</g>
<g>
	<g>
		<path d="M238.702,203.343C222.345,180.806,195.976,166,166,166c-49.706,0-90,40.294-90,90c0,16.577,4.797,31.904,12.614,45.242
			C89.427,301.225,90.183,301,91,301c32.007,0,60.963,12.784,82.5,33.279c16.88-16.064,38.553-26.592,62.492-30.628
			C229.439,288.631,226,272.419,226,256C226,237.027,230.828,219.309,238.702,203.343z M166,241c-8.276,0-15,6.724-15,15
			c0,8.291-6.709,15-15,15s-15-6.709-15-15c0-24.814,20.186-45,45-45c8.291,0,15,6.709,15,15S174.291,241,166,241z"/>
	</g>
</g>
<g>
	<g>
		<path d="M319.658,357.382C303.371,341.082,280.864,331,256,331c-49.706,0-90,40.294-90,90s40.294,91,90,91
			c24.864,0,47.371-10.082,63.658-26.382C308.009,467.128,301,444.421,301,421C301,397.579,308.009,375.872,319.658,357.382z
			 M256,406c-8.276,0-15,6.724-15,15c0,8.291-6.709,15-15,15s-15-6.709-15-15c0-24.814,20.186-45,45-45c8.291,0,15,6.709,15,15
			C271,399.291,264.291,406,256,406z"/>
	</g>
</g>
<g>
	<g>
		<path d="M154.658,357.382C138.371,341.082,115.864,331,91,331c-49.706,0-91,40.294-91,90s41.294,91,91,91
			c24.864,0,47.371-10.082,63.658-26.382C143.009,467.128,136,444.421,136,421C136,397.579,143.009,375.872,154.658,357.382z
			 M91,406c-8.276,0-15,6.724-15,15c0,8.291-6.709,15-15,15s-15-6.709-15-15c0-24.814,20.186-45,45-45c8.291,0,15,6.709,15,15
			C106,399.291,99.291,406,91,406z"/>
	</g>
</g>
<g>
</g>
<g>
</g>
<g>
</g>
<g>
</g>
<g>
</g>
<g>
</g>
<g>
</g>
<g>
</g>
<g>
</g>
<g>
</g>
<g>
</g>
<g>
</g>
<g>
</g>
<g>
</g>
<g>
</g>
</svg>
