<?xml version="1.0" encoding="iso-8859-1"?>
<!-- Generator: Adobe Illustrator 19.0.0, SVG Export Plug-In . SVG Version: 6.00 Build 0)  -->
<svg version="1.1" id="Capa_1" xmlns="http://www.w3.org/2000/svg" xmlns:xlink="http://www.w3.org/1999/xlink" x="0px" y="0px"
	 viewBox="0 0 512.001 512.001" style="enable-background:new 0 0 512.001 512.001;" xml:space="preserve">
<g>
	<g>
		<path d="M391,15c-16.793,0-31.93,6.936-42.821,18.052C334.7,13.11,311.883,0,286,0c-24.65,0-46.328,12.05-60,30.41
			C212.328,12.05,190.651,0,166,0c-25.882,0-48.699,13.11-62.179,33.052C92.93,21.936,77.794,15,61,15C27.863,15,0,41.862,0,75
			c0,33.137,27.863,60,61,60c16.791,0,31.93-6.936,42.821-18.052C117.302,136.888,140.118,150,166,150
			c24.65,0,46.328-12.05,60-30.41c13.672,18.36,35.35,30.41,60,30.41c25.882,0,48.699-13.112,62.179-33.052
			C359.07,128.064,374.21,135,391,135c33.137,0,60-26.863,60-60C451,41.862,424.138,15,391,15z"/>
	</g>
</g>
<g>
	<g>
		<path d="M406,271H46c-8.284,0-15,6.714-15,15v30c0,8.284,6.716,15,15,15h360c8.284,0,15-6.716,15-15v-30
			C421,277.714,414.284,271,406,271z"/>
	</g>
</g>
<g>
	<g>
		<path d="M391.768,164.923C391.505,164.925,391.263,165,391,165c-13.579,0-26.675-2.988-38.584-8.672
			c-6.535,5.341-13.834,9.529-21.416,13.141V241h67.429L391.768,164.923z"/>
	</g>
</g>
<g>
	<g>
		<path d="M286,180c-15.91,0-31.166-3.629-45-10.263V241h60v-62.3C296.057,179.414,291.076,180,286,180z"/>
	</g>
</g>
<g>
	<g>
		<path d="M99.584,156.328C87.675,162.012,74.579,165,61,165c-0.262,0-0.504-0.075-0.764-0.077L53.573,241H121v-71.53
			C113.419,165.857,106.12,161.669,99.584,156.328z"/>
	</g>
</g>
<g>
	<g>
		<path d="M166,180c-5.076,0-10.056-0.586-15-1.3V241h60v-71.261C197.167,176.373,181.909,180,166,180z"/>
	</g>
</g>
<g>
	<g>
		<rect x="241" y="361" width="60" height="151"/>
	</g>
</g>
<g>
	<g>
		<rect x="151" y="361" width="60" height="151"/>
	</g>
</g>
<g>
	<g>
		<path d="M46,361c-1.044,0-2.023-0.238-3.049-0.308L33.959,463.03c-1.113,12.539,3.135,25.063,11.631,34.365
			C54.086,506.668,66.186,512,78.784,512H121V361H46z"/>
	</g>
</g>
<g>
	<g>
		<path d="M418.042,463.016l-8.99-102.323c-1.027,0.07-2.007,0.308-3.051,0.308h-75v151h42.217
			c12.597-0.001,24.697-5.333,33.193-14.605C414.906,488.094,419.154,475.57,418.042,463.016z"/>
	</g>
</g>
<g>
	<g>
		<path d="M467,211h-41.118l2.664,30H467c8.276,0,15,6.724,15,15v151c0,8.276-6.724,15-15,15h-22.482l2.664,30H467
			c24.814,0,45-20.186,45-45V256C512,231.186,491.815,211,467,211z"/>
	</g>
</g>
<g>
</g>
<g>
</g>
<g>
</g>
<g>
</g>
<g>
</g>
<g>
</g>
<g>
</g>
<g>
</g>
<g>
</g>
<g>
</g>
<g>
</g>
<g>
</g>
<g>
</g>
<g>
</g>
<g>
</g>
</svg>
