<?xml version="1.0" encoding="iso-8859-1"?>
<!-- Generator: Adobe Illustrator 19.0.0, SVG Export Plug-In . SVG Version: 6.00 Build 0)  -->
<svg version="1.1" id="Capa_1" xmlns="http://www.w3.org/2000/svg" xmlns:xlink="http://www.w3.org/1999/xlink" x="0px" y="0px"
	 viewBox="0 0 512 512" style="enable-background:new 0 0 512 512;" xml:space="preserve">
<g>
	<g>
		<path d="M497,241h-16.76c-3.369-50.744-23.538-96.861-55.113-132.916l11.18-11.18c5.859-5.859,5.859-15.352,0-21.211
			s-15.352-5.859-21.211,0l-11.18,11.18C367.861,55.298,321.744,35.129,271,31.76V15c0-8.291-6.709-15-15-15
			c-8.291,0-15,6.709-15,15v16.76c-50.744,3.369-96.861,23.538-132.916,55.113l-11.18-11.18c-5.859-5.859-15.352-5.859-21.211,0
			s-5.859,15.352,0,21.211l11.18,11.18C55.298,144.139,35.129,190.256,31.76,241H15c-8.291,0-15,6.709-15,15s6.709,15,15,15h16.76
			c3.369,50.744,23.538,96.861,55.113,132.916l-11.18,11.18c-5.859,5.859-5.859,15.352,0,21.211s15.352,5.859,21.211,0l11.18-11.18
			c36.055,31.575,82.172,51.744,132.916,55.113V497c0,8.291,6.709,15,15,15s15-6.709,15-15v-16.76
			c50.744-3.369,96.861-23.538,132.916-55.113l11.18,11.18c5.859,5.859,15.352,5.859,21.211,0s5.859-15.352,0-21.211l-11.18-11.18
			c31.575-36.055,51.744-82.172,55.113-132.916H497c8.291,0,15-6.709,15-15C512,247.709,505.291,241,497,241z M129.282,150.493
			l64.213,64.213c-5.215,7.866-9.029,16.736-10.977,26.294H91.76C94.865,206.757,108.422,175.503,129.282,150.493z M91.76,271
			h90.758c1.948,9.558,5.762,18.428,10.977,26.294l-64.213,64.213C108.422,336.497,94.865,305.243,91.76,271z M241,420.24
			c-34.243-3.105-65.497-16.663-90.507-37.522l64.213-64.213c7.866,5.215,16.736,9.029,26.294,10.977V420.24z M241,182.518
			c-9.558,1.948-18.428,5.762-26.294,10.977l-64.213-64.213c25.01-20.859,56.265-34.417,90.507-37.522V182.518z M271,91.76
			c34.243,3.105,65.497,16.663,90.507,37.522l-64.213,64.213c-7.866-5.215-16.736-9.029-26.294-10.977V91.76z M271,420.24v-90.758
			c9.558-1.948,18.428-5.762,26.294-10.977l64.213,64.213C336.497,403.577,305.242,417.135,271,420.24z M382.718,361.507
			l-64.213-64.213c5.215-7.866,9.029-16.836,10.977-26.394h90.758C417.135,305.143,403.578,336.497,382.718,361.507z M329.482,241
			c-1.948-9.558-5.762-18.428-10.977-26.294l64.213-64.213c20.86,25.01,34.417,56.264,37.522,90.507H329.482z"/>
	</g>
</g>
<g>
</g>
<g>
</g>
<g>
</g>
<g>
</g>
<g>
</g>
<g>
</g>
<g>
</g>
<g>
</g>
<g>
</g>
<g>
</g>
<g>
</g>
<g>
</g>
<g>
</g>
<g>
</g>
<g>
</g>
</svg>
