<?xml version="1.0" encoding="iso-8859-1"?>
<!-- Generator: Adobe Illustrator 19.0.0, SVG Export Plug-In . SVG Version: 6.00 Build 0)  -->
<svg version="1.1" id="Capa_1" xmlns="http://www.w3.org/2000/svg" xmlns:xlink="http://www.w3.org/1999/xlink" x="0px" y="0px"
	 viewBox="0 0 512.001 512.001" style="enable-background:new 0 0 512.001 512.001;" xml:space="preserve">
<g>
	<g>
		<path d="M510.871,409.902c-3.149-7.661-11.939-11.368-19.571-8.174c-5.83,2.388-12.47,5.376-17.875,8.965
			c-22.295,14.854-51.064,14.854-73.359,0c-32.402-21.592-74.238-21.592-106.64,0c-22.295,14.854-51.064,14.854-73.359,0
			c-32.402-21.592-74.238-21.592-106.64,0c-22.295,14.854-52.064,14.854-74.359,0c-5.859-3.911-12.144-7.163-18.662-9.683
			c-7.661-3.003-16.421,0.864-19.395,8.584c-2.988,7.734,0.864,16.421,8.584,19.395c4.482,1.729,8.789,3.97,12.832,6.665
			c32.402,21.592,75.238,21.592,107.64,0c22.295-14.854,51.064-14.854,73.359,0c32.402,21.592,74.238,21.592,106.64,0
			c22.295-14.854,51.064-14.854,73.359,0c32.468,21.636,75.29,21.566,107.625,0c3.721-2.476,7.632-4.526,11.646-6.182
			C510.358,426.323,514.02,417.563,510.871,409.902z"/>
	</g>
</g>
<g>
	<g>
		<path d="M510.871,469.902c-3.15-7.691-11.939-11.368-19.571-8.174c-5.83,2.388-12.47,5.376-17.875,8.965
			c-22.295,14.854-51.064,14.854-73.359,0c-32.402-21.592-74.238-21.592-106.64,0c-22.295,14.854-51.064,14.854-73.359,0
			c-32.402-21.592-74.238-21.592-106.64,0c-22.295,14.854-52.064,14.854-74.359,0c-5.859-3.911-12.144-7.163-18.662-9.683
			c-7.661-2.959-16.421,0.85-19.395,8.584c-2.988,7.734,0.864,16.421,8.584,19.395c4.482,1.729,8.789,3.97,12.832,6.665
			c32.402,21.592,75.238,21.592,107.64,0c22.295-14.854,51.064-14.854,73.359,0c32.402,21.592,74.238,21.592,106.64,0
			c22.295-14.854,51.064-14.854,73.359,0c32.468,21.636,75.29,21.566,107.625,0c3.721-2.476,7.632-4.526,11.646-6.182
			C510.358,486.323,514.02,477.563,510.871,469.902z"/>
	</g>
</g>
<g>
	<g>
		<path d="M466,181.106H211.001v-15c0-7.149-5.054-13.301-12.056-14.707l-149.999-30c-4.438-0.835-8.965,0.264-12.451,3.105
			c-3.472,2.856-5.493,7.104-5.493,11.602v119.999c0,4.497,2.021,8.745,5.493,11.602c3.3,2.708,7.767,4.014,12.451,3.105l149.999-30
			c7.002-1.406,12.056-7.559,12.056-14.707v-15H466c8.291,0,15-6.709,15-15S474.291,181.106,466,181.106z"/>
	</g>
</g>
<g>
	<g>
		<path d="M475.507,3.505c-3.442-2.827-8.013-3.896-12.451-3.105l-149.999,31c-7.002,1.406-12.056,7.559-12.056,14.707v15H46.002
			c-8.291,0-15,6.709-15,15s6.709,15,15,15h254.998v15c0,7.148,5.054,13.301,12.056,14.707l149.999,30
			c4.678,0.906,9.146-0.394,12.451-3.105c3.472-2.856,5.493-7.104,5.493-11.602V15.107C481,10.61,478.979,6.362,475.507,3.505z"/>
	</g>
</g>
<g>
	<g>
		<path d="M496.998,301.104H15.001c-8.291,0-15,6.709-15,15c0,18.677,3.182,37.771,9.023,54.811
			c5.198-0.728,10.77-2.383,22.325,2.161c8.467,3.281,16.714,7.559,24.375,12.671c12.208,8.108,28.847,8.11,41.063-0.015
			c20.845-13.887,45.044-21.226,69.961-21.226s49.116,7.339,69.961,21.226c12.145,8.077,27.788,8.172,40.078,0
			c20.845-13.887,45.044-21.226,69.961-21.226c24.917,0,49.116,7.339,69.961,21.226c12.145,8.077,27.788,8.172,40.078,0
			c7.046-4.673,15.487-8.628,23.148-11.763c11.05-4.653,18.455-3.102,22.883-2.516c5.962-17.195,9.183-36.482,9.183-55.349
			C511.998,307.813,505.289,301.104,496.998,301.104z"/>
	</g>
</g>
<g>
</g>
<g>
</g>
<g>
</g>
<g>
</g>
<g>
</g>
<g>
</g>
<g>
</g>
<g>
</g>
<g>
</g>
<g>
</g>
<g>
</g>
<g>
</g>
<g>
</g>
<g>
</g>
<g>
</g>
</svg>
