<?xml version="1.0" encoding="iso-8859-1"?>
<!-- Generator: Adobe Illustrator 19.0.0, SVG Export Plug-In . SVG Version: 6.00 Build 0)  -->
<svg version="1.1" id="Capa_1" xmlns="http://www.w3.org/2000/svg" xmlns:xlink="http://www.w3.org/1999/xlink" x="0px" y="0px"
	 viewBox="0 0 512 512" style="enable-background:new 0 0 512 512;" xml:space="preserve">
<g>
	<g>
		<path d="M268.482,211.008H195c-5.684,0-10.869-3.208-13.418-8.291l-19.642-39.285c-10.794,10.763-25.497,17.576-41.94,17.576
			c-29.672,0-54.205-21.687-58.991-50.015C25.104,147.698,0,183.873,0,226.008V377.34c0,39.829,30.747,72.876,68.54,73.652
			c47.007,0,77.433-40.452,70.576-81.533l-1.408-8.452H165c41.353,0,75-33.647,75-75v-30c0-0.093-0.051-0.17-0.053-0.262
			C254.29,244.924,264.765,229.24,268.482,211.008z M75,391.007c-8.284,0-15-6.716-15-15c0-8.286,6.716-15,15-15s15,6.714,15,15
			C90,384.291,83.284,391.007,75,391.007z M210.001,286.007H210c0,24.814-20.186,45-45,45h-32.292l-1.267-7.603
			c-2.183-13.081,1.479-26.367,10.049-36.489c2.503-2.952,5.416-5.409,8.511-7.59v6.682c0,8.291,6.709,15,15,15
			c8.291,0,15-6.709,15-15v-15h15c5.153,0,10.137-0.65,15-1.644V286.007z"/>
	</g>
</g>
<g>
	<g>
		<path d="M120,91.008c-0.117,0-0.212,0.064-0.328,0.066C105.97,72.93,84.435,61.008,60,61.008c-8.291,0-15,6.709-15,15
			c0,8.291,6.709,15,15,15c13.652,0,25.752,6.24,34.012,15.868C91.677,111.143,90,115.8,90,121.008
			c0,14.495,10.486,26.02,24.153,28.819c1.796,0.76,3.772,1.181,5.847,1.181s4.05-0.421,5.847-1.181
			c13.667-2.8,24.153-14.324,24.153-28.819C150,104.438,136.569,91.008,120,91.008z"/>
	</g>
</g>
<g>
	<g>
		<path d="M299.092,211.007l-1.216,5.977c-4.321,21.251-15.253,39.688-30.048,54.023H467c8.291,0,15-6.709,15-15v-45H299.092z"/>
	</g>
</g>
<g>
	<g>
		<path d="M308.789,121.008H180c0,3.109-0.767,5.984-1.252,8.95l25.525,51.05h164.516L308.789,121.008z"/>
	</g>
</g>
<g>
	<g>
		<path d="M497,121.008H351.211l60,60H512v-45C512,127.716,505.291,121.008,497,121.008z"/>
	</g>
</g>
<g>
</g>
<g>
</g>
<g>
</g>
<g>
</g>
<g>
</g>
<g>
</g>
<g>
</g>
<g>
</g>
<g>
</g>
<g>
</g>
<g>
</g>
<g>
</g>
<g>
</g>
<g>
</g>
<g>
</g>
</svg>
