<?xml version="1.0" encoding="iso-8859-1"?>
<!-- Generator: Adobe Illustrator 19.0.0, SVG Export Plug-In . SVG Version: 6.00 Build 0)  -->
<svg version="1.1" id="Capa_1" xmlns="http://www.w3.org/2000/svg" xmlns:xlink="http://www.w3.org/1999/xlink" x="0px" y="0px"
	 viewBox="0 0 512 512" style="enable-background:new 0 0 512 512;" xml:space="preserve">
<g>
	<g>
		<path d="M496.981,121.057h-28.038c-8.249-42.695-17.822-76.619-18.522-79.081c-1.831-6.443-7.718-10.895-14.425-10.895H271.039
			V15.085c0-8.289-6.707-14.996-14.996-14.996c-8.289,0-14.996,6.707-14.996,14.996v15.996H76.091
			c-6.707,0-12.595,4.452-14.425,10.895c-0.699,2.462-10.273,36.386-18.522,79.081H15.106c-8.289,0-14.996,6.707-14.996,14.996
			s6.707,14.896,14.996,14.896H37.88c-3.943,25.157-6.778,51.528-6.778,75.08c0,76.533,29.787,152.318,31.047,155.496
			c0.789,1.984,2.37,3.339,3.835,4.774c2.149-4.401,4.752-8.587,8.291-12.126c35.645-35.645,77.661-64.07,124.874-84.499
			l12.064-5.216c0.842-24.074,20.556-43.434,44.831-43.434c24.276,0,43.988,19.36,44.831,43.434l12.064,5.216
			c47.215,20.43,89.229,48.854,124.874,84.499c3.538,3.538,6.139,7.723,8.289,12.126c1.465-1.436,3.048-2.79,3.837-4.774
			c1.26-3.178,31.047-78.963,31.047-155.496c0-23.552-2.835-49.823-6.778-74.98h22.774c8.289,0,14.996-6.707,14.996-14.996
			S505.27,121.057,496.981,121.057z M256.042,61.073c24.807,0,44.988,20.181,44.988,44.988c0,24.807-20.181,44.988-44.988,44.988
			c-24.807,0-44.988-20.181-44.988-44.988S231.235,61.073,256.042,61.073z M322.734,212.615c7.41,3.705,10.412,12.712,6.707,20.122
			c-3.69,7.359-12.644,10.419-20.122,6.707l-53.277-26.639l-53.277,26.639c-7.485,3.716-16.435,0.645-20.122-6.707
			c-3.705-7.41-0.703-16.417,6.707-20.122l33.155-16.578l-33.155-16.578c-7.41-3.705-10.412-12.712-6.707-20.122
			c3.705-7.395,12.726-10.368,20.122-6.707l53.277,26.639l53.277-26.639c7.41-3.661,16.402-0.688,20.122,6.707
			c3.705,7.41,0.703,16.417-6.707,20.122l-33.155,16.578L322.734,212.615z"/>
	</g>
</g>
<g>
	<g>
		<path d="M256.042,91.065c-8.274,0-14.996,6.722-14.996,14.996s6.722,14.996,14.996,14.996c8.274,0,14.996-6.722,14.996-14.996
			S264.316,91.065,256.042,91.065z"/>
	</g>
</g>
<g>
	<g>
		<path d="M510.777,469.663c-3.001-7.496-11.999-11.395-19.497-8.095c-5.698,2.398-12.397,5.399-17.795,8.998
			c-21.194,13.846-47.556,14.157-69.366,1.911c2.579-7.654,5.005-15.547,7.141-24.124l9.299-38.783
			c1.26-5.097-0.249-10.485-3.954-14.19c-33.468-33.468-72.436-59.519-115.575-78.172v149.124c-2.515,1.373-5.078,2.621-7.498,4.234
			c-6.897,4.498-14.696,7.798-22.494,9.597V286.014c0-8.399-6.597-14.996-14.996-14.996c-8.399,0-14.996,6.597-14.996,14.996
			v193.548c-7.198-1.799-14.395-4.798-20.994-8.998c-2.903-1.935-5.958-3.493-8.998-5.082V317.207
			c-43.14,18.653-82.106,44.704-115.575,78.172c-3.705,3.705-5.214,9.095-3.954,14.19l9.314,38.827
			c1.962,7.861,4.569,16.1,7.496,24.603c-21.593,11.608-47.398,11.179-68.236-2.434c-5.698-3.899-12.996-7.198-19.595-9.597
			c-7.798-2.998-16.496,0.899-19.494,8.397c-3,7.798,0.899,16.497,8.697,19.496c4.498,1.8,8.697,3.899,12.897,6.599
			c32.392,21.593,75.079,21.593,107.472,0c32.222-21.065,57.854-8.002,80.979,4.221v-0.319c29.88,16.224,59.101,16.966,89.976,0.776
			v0.732c22.981-11.598,47.875-28.015,82.478-5.412c16.195,10.797,34.79,16.195,53.087,16.195c18.595,0,38.19-5.399,54.385-16.195
			c3.899-2.4,7.798-4.5,11.697-5.998C510.476,486.159,514.076,477.46,510.777,469.663z"/>
	</g>
</g>
<g>
</g>
<g>
</g>
<g>
</g>
<g>
</g>
<g>
</g>
<g>
</g>
<g>
</g>
<g>
</g>
<g>
</g>
<g>
</g>
<g>
</g>
<g>
</g>
<g>
</g>
<g>
</g>
<g>
</g>
</svg>
