<?xml version="1.0" encoding="iso-8859-1"?>
<!-- Generator: Adobe Illustrator 19.0.0, SVG Export Plug-In . SVG Version: 6.00 Build 0)  -->
<svg version="1.1" id="Capa_1" xmlns="http://www.w3.org/2000/svg" xmlns:xlink="http://www.w3.org/1999/xlink" x="0px" y="0px"
	 viewBox="0 0 512 512" style="enable-background:new 0 0 512 512;" xml:space="preserve">
<g>
	<g>
		<path d="M481.224,282.217c-2.036-6.124-7.764-10.254-14.224-10.254H317c-6.46,0-12.188,4.131-14.224,10.254l-16.578,49.746
			h211.604L481.224,282.217z"/>
	</g>
</g>
<g>
	<g>
		<path d="M507.404,361.963H120v75c0,24.852,20.147,45,45,45h146.58c21.709,19.395,49.541,30,80.962,30
			c36.006,0,69.009-14.663,90.527-40.225C509.299,440.608,518.053,399.995,507.404,361.963z"/>
	</g>
</g>
<g>
	<g>
		<path d="M15,361.963c-8.284,0-15,6.714-15,15v30c0,8.283,6.716,15,15,15h75v-60H15z"/>
	</g>
</g>
<g>
	<g>
		<path d="M437,29.963c-9.185,0-18.193,1.655-26.631,4.863C393.758,8.766,361.985-5.047,330.33,1.764
			c-27.246,5.933-49.204,27.144-55.928,54.053c-0.35,1.371-0.657,2.759-0.934,4.146H272c-33.137,0-60,26.862-60,60
			c0,33.137,26.863,60,60,60h68.789l55.605,57.605c4.325,4.323,10.814,5.561,16.348,3.252c5.61-2.314,9.258-7.793,9.258-13.857v-47
			h30c33.091,0,60-26.909,60-60v-15C512,63.61,478.353,29.963,437,29.963z"/>
	</g>
</g>
<g>
</g>
<g>
</g>
<g>
</g>
<g>
</g>
<g>
</g>
<g>
</g>
<g>
</g>
<g>
</g>
<g>
</g>
<g>
</g>
<g>
</g>
<g>
</g>
<g>
</g>
<g>
</g>
<g>
</g>
</svg>
