<?xml version="1.0" encoding="iso-8859-1"?>
<!-- Generator: Adobe Illustrator 19.0.0, SVG Export Plug-In . SVG Version: 6.00 Build 0)  -->
<svg version="1.1" id="Capa_1" xmlns="http://www.w3.org/2000/svg" xmlns:xlink="http://www.w3.org/1999/xlink" x="0px" y="0px"
	 viewBox="0 0 512.002 512.002" style="enable-background:new 0 0 512.002 512.002;" xml:space="preserve">
<g>
	<g>
		<path d="M495.492,204.416c13.506-22.991,10.615-53.024-9.102-72.739c-4.486-4.488-9.619-7.842-14.976-10.607
			c5.358-2.765,10.49-6.119,14.976-10.607c19.715-19.715,22.61-49.748,9.102-72.74l12.112-12.112c5.861-5.861,5.861-15.35,0-21.213
			c-5.863-5.863-15.352-5.863-21.215,0L474.278,16.51c-22.991-13.508-53.026-10.615-72.74,9.1
			c-4.486,4.488-7.841,9.62-10.605,14.978c-2.767-5.358-6.119-10.49-10.607-14.978c-19.715-19.715-49.748-22.608-72.74-9.1
			L295.472,4.397c-5.861-5.863-15.35-5.863-21.213,0c-5.863,5.863-5.863,15.352,0,21.213l12.112,12.112
			c-13.508,22.993-10.615,53.026,9.1,72.74c4.488,4.488,9.62,7.842,14.978,10.607c-5.358,2.765-10.49,6.119-14.978,10.607
			c-15.542,15.54-20.526,37.495-15.421,57.378L4.395,465.18c-5.858,5.858-5.858,15.355,0,21.213l21.214,21.215
			c5.858,5.858,15.355,5.858,21.213,0l275.396-275.874c20.074,5.424,42.374,0.527,58.107-15.205
			c4.488-4.486,7.841-9.619,10.607-14.976c2.765,5.358,6.119,10.49,10.605,14.976c19.717,19.717,49.75,22.608,72.74,9.102
			l12.112,12.112c5.863,5.861,15.352,5.861,21.215,0c5.861-5.863,5.861-15.352,0-21.215L495.492,204.416z M422.752,46.825
			c11.693-11.695,30.732-11.695,42.426,0c11.695,11.693,11.695,30.731,0,42.426c-11.693,11.695-30.732,11.695-42.426,0
			C411.057,77.555,411.057,58.518,422.752,46.825z M316.687,46.825c11.693-11.695,30.731-11.695,42.426,0
			c11.695,11.693,11.695,30.731,0,42.426s-30.732,11.695-42.426,0C304.992,77.555,304.992,58.518,316.687,46.825z M359.113,195.316
			c-11.695,11.695-30.732,11.695-42.426,0c-11.695-11.693-11.695-30.733,0-42.426c11.693-11.695,30.731-11.695,42.426,0
			C370.808,164.583,370.808,183.622,359.113,195.316z M390.932,146.653c-2.767-5.358-6.119-10.49-10.607-14.976
			c-4.488-4.488-9.62-7.842-14.978-10.607c5.358-2.765,10.49-6.119,14.978-10.607c4.488-4.488,7.841-9.62,10.607-14.978
			c2.765,5.358,6.119,10.49,10.605,14.978c4.488,4.488,9.62,7.842,14.978,10.607c-5.358,2.765-10.49,6.119-14.978,10.607
			C397.051,136.163,393.696,141.296,390.932,146.653z M465.178,195.316c-11.693,11.695-30.732,11.695-42.426,0
			c-11.695-11.693-11.695-30.732,0-42.426c11.693-11.695,30.732-11.695,42.426,0C476.873,164.583,476.873,183.623,465.178,195.316z"
			/>
	</g>
</g>
<g>
	<g>
		<path d="M267.101,350.35l-10.46-10.462L108.277,488.51l10.332,10.333c17.545,17.545,46.093,17.545,63.638,0l21.215-21.215
			c5.861-5.861,5.861-15.35,0-21.213l-10.607-10.605l21.213-21.214l10.607,10.607c5.863,5.863,15.35,5.863,21.213,0l21.213-21.213
			C284.648,396.443,284.648,367.897,267.101,350.35z"/>
	</g>
</g>
<g>
</g>
<g>
</g>
<g>
</g>
<g>
</g>
<g>
</g>
<g>
</g>
<g>
</g>
<g>
</g>
<g>
</g>
<g>
</g>
<g>
</g>
<g>
</g>
<g>
</g>
<g>
</g>
<g>
</g>
</svg>
