<?xml version="1.0" encoding="iso-8859-1"?>
<!-- Generator: Adobe Illustrator 19.0.0, SVG Export Plug-In . SVG Version: 6.00 Build 0)  -->
<svg version="1.1" id="Capa_1" xmlns="http://www.w3.org/2000/svg" xmlns:xlink="http://www.w3.org/1999/xlink" x="0px" y="0px"
	 viewBox="0 0 512.002 512.002" style="enable-background:new 0 0 512.002 512.002;" xml:space="preserve">
<g>
	<g>
		<path d="M256,151.001c-41.353,0-75,33.647-75,75v30h15c8.291,0,15,6.709,15,15v30h90v-30c0-8.291,6.709-15,15-15h15v-30
			C331,184.648,297.353,151.001,256,151.001z M226,226.001c-8.284,0-15-6.716-15-15c0-8.286,6.716-15,15-15s15,6.714,15,15
			C241,219.284,234.284,226.001,226,226.001z M271,271.001c0,8.291-6.709,15-15,15c-8.291,0-15-6.709-15-15v-15
			c0-8.291,6.709-15,15-15s15,6.709,15,15V271.001z M286,226.001c-8.284,0-15-6.716-15-15c0-8.286,6.716-15,15-15s15,6.714,15,15
			C301,219.284,294.284,226.001,286,226.001z"/>
	</g>
</g>
<g>
	<g>
		<path d="M424.491,226l85.371-142.28c2.783-4.643,2.856-10.415,0.19-15.117C507.386,63.901,502.406,61,497,61H90v330h407
			c5.405,0,10.386-2.9,13.052-7.603s2.593-10.474-0.19-15.117L424.491,226z M361,271.001c0,8.291-6.709,15-15,15h-15v30
			c0,8.291-6.709,15-15,15H196c-8.291,0-15-6.709-15-15v-30h-15c-8.291,0-15-6.709-15-15v-45c0-57.891,47.109-105,105-105
			s105,47.109,105,105V271.001z"/>
	</g>
</g>
<g>
	<g>
		<path d="M30,0.001c-16.569,0-30,13.431-30,30v467c0,8.283,6.716,15,15,15h30c8.284,0,15-6.716,15-15v-467
			C60,13.432,46.569,0.001,30,0.001z"/>
	</g>
</g>
<g>
</g>
<g>
</g>
<g>
</g>
<g>
</g>
<g>
</g>
<g>
</g>
<g>
</g>
<g>
</g>
<g>
</g>
<g>
</g>
<g>
</g>
<g>
</g>
<g>
</g>
<g>
</g>
<g>
</g>
</svg>
