<?xml version="1.0" encoding="iso-8859-1"?>
<!-- Generator: Adobe Illustrator 19.0.0, SVG Export Plug-In . SVG Version: 6.00 Build 0)  -->
<svg version="1.1" id="Capa_1" xmlns="http://www.w3.org/2000/svg" xmlns:xlink="http://www.w3.org/1999/xlink" x="0px" y="0px"
	 viewBox="0 0 512 512" style="enable-background:new 0 0 512 512;" xml:space="preserve">
<g>
	<g>
		<path d="M105,257c-8.276,0-15,6.724-15,15c0,2.373,0.542,4.644,1.597,6.738L105,301.971l13.799-23.95
			c0.659-1.377,1.201-3.647,1.201-6.021C120,263.724,113.276,257,105,257z"/>
	</g>
</g>
<g>
	<g>
		<path d="M467,302c-24.853,0-45,20.147-45,45c0,8.291-6.709,15-15,15c-8.291,0-15-6.709-15-15V61H165c-5.7,0-10.8,3.3-13.5,8.399
			L135,103.4l-16.5-34.001C115.8,64.3,110.7,61,105,61H60C27.001,61,0,88.999,0,122v285.383C12.574,397.865,28.052,392,45,392
			c6.442,0,241,0,241,0c5.7,0,10.8-3.3,13.5-8.401L316,350.6l16.5,32.999C335.2,388.7,340.3,392,346,392h121
			c24.853,0,45-20.147,45-45C512,322.147,491.853,302,467,302z M117.993,339.485C115.313,344.129,110.361,347,105,347
			s-10.313-2.871-12.993-7.515l-26.792-46.494C61.67,286.033,60,279.017,60,272c0-24.814,20.186-45,45-45s45,20.186,45,45
			c0,7.017-1.67,14.033-4.819,20.273L117.993,339.485z M211,347h-46c-8.291,0-15-6.709-15-15c0-8.291,6.709-15,15-15h46
			c16.538,0,30-13.462,30-30c0-16.538-13.462-30-30-30c-33.091,0-61-26.909-61-60s27.909-60,61-60h45c8.291,0,15,6.709,15,15
			s-6.709,15-15,15h-45c-16.538,0-31,13.462-31,30c0,16.538,14.462,30,31,30c33.091,0,60,26.909,60,60S244.091,347,211,347z
			 M356.606,171.395c5.859,5.859,5.859,15.352,0,21.211c-5.859,5.859-15.352,5.859-21.211,0L316,173.211l-19.395,19.395
			c-5.859,5.859-15.352,5.859-21.211,0c-5.859-5.859-5.859-15.352,0-21.211L294.789,152l-19.395-19.395
			c-5.859-5.859-5.859-15.351,0.001-21.21c5.859-5.859,15.352-5.859,21.211,0L316,130.789l19.395-19.395
			c5.859-5.859,15.352-5.859,21.211,0s5.859,15.352,0,21.211L337.211,152L356.606,171.395z"/>
	</g>
</g>
<g>
	<g>
		<path d="M467,0c-24.853,0-45,20.147-45,45v242.383C434.574,277.865,450.052,272,467,272s32.426,5.865,45,15.383V45
			C512,20.147,491.853,0,467,0z"/>
	</g>
</g>
<g>
	<g>
		<path d="M45,422c-24.853,0-45,20.147-45,45c0,24.853,20.147,45,45,45s45-20.147,45-45v-45H45z"/>
	</g>
</g>
<g>
</g>
<g>
</g>
<g>
</g>
<g>
</g>
<g>
</g>
<g>
</g>
<g>
</g>
<g>
</g>
<g>
</g>
<g>
</g>
<g>
</g>
<g>
</g>
<g>
</g>
<g>
</g>
<g>
</g>
</svg>
