<?xml version="1.0" encoding="iso-8859-1"?>
<!-- Generator: Adobe Illustrator 19.0.0, SVG Export Plug-In . SVG Version: 6.00 Build 0)  -->
<svg version="1.1" id="Capa_1" xmlns="http://www.w3.org/2000/svg" xmlns:xlink="http://www.w3.org/1999/xlink" x="0px" y="0px"
	 viewBox="0 0 511.999 511.999" style="enable-background:new 0 0 511.999 511.999;" xml:space="preserve">
<g>
	<g>
		<path d="M510.177,188.706L458.88,47.763c-5.788-15.855-23.126-23.544-38.438-17.944c-15.606,5.696-23.617,22.831-17.944,38.452
			l51.298,140.943c5.658,15.566,23.031,23.584,38.437,17.945c0.059-0.015,0.103-0.044,0.161-0.059l0.146-0.059
			C507.914,221.259,515.82,204.217,510.177,188.706z"/>
	</g>
</g>
<g>
	<g>
		<path d="M271.997,270.999c0-8.291,6.709-15,15-15h104.999c0-16.569-13.431-30-30-30H237.419c-11.931,0-23.372,4.739-31.809,13.174
			L97.981,346.806c45.841,4.113,82.017,42.297,82.017,89.192h93.515c-0.716-4.942-1.516-9.864-1.516-15
			c0-57.89,47.108-104.999,104.999-104.999c5.136,0,10.058,0.8,15,1.516v-31.516H286.997
			C278.706,285.999,271.997,279.29,271.997,270.999z"/>
	</g>
</g>
<g>
	<g>
		<path d="M74.999,16.002c-8.291,0-15,6.709-15,15v30c0,8.291,6.709,15,15,15c8.291,0,15-6.709,15-15v-30
			C89.999,22.711,83.29,16.002,74.999,16.002z"/>
	</g>
</g>
<g>
	<g>
		<path d="M320.179,100.993c-15.059,7.183-30.927,12.684-47.449,15.511l-163.014,27.495c-6.833,1.168-13.378,3.193-19.717,5.643
			v-28.641c0-8.291-6.709-15-15-15s-15,6.709-15,15v47.2H60c-8.379,7.302-15.994,15.54-21.724,25.411
			c-15.337,26.382-18.149,57.963-7.705,86.645c7.778,21.367,22.641,38.641,41.226,50.611c0.493-0.542,0.864-1.165,1.386-1.686
			l111.21-111.21C198.557,203.808,217.395,196,237.419,196h109.578c2.314,0,4.449,0.61,6.707,0.818L320.179,100.993z"/>
	</g>
</g>
<g>
	<g>
		<path d="M46.816,71.607L25.605,50.396c-5.859-5.859-15.352-5.859-21.211,0c-5.859,5.859-5.859,15.352,0,21.211l21.211,21.211
			c5.859,5.859,15.352,5.859,21.211,0C52.675,86.959,52.675,77.466,46.816,71.607z"/>
	</g>
</g>
<g>
	<g>
		<path d="M145.605,50.396c-5.859-5.859-15.352-5.859-21.211,0l-21.211,21.211c-5.859,5.859-5.859,15.352,0,21.211
			c5.859,5.859,15.351,5.86,21.211,0l21.211-21.211C151.464,65.748,151.464,56.255,145.605,50.396z"/>
	</g>
</g>
<g>
	<g>
		<path d="M89.999,375.998C56.863,375.998,30,402.86,30,435.997c0,33.136,26.863,59.999,59.999,59.999
			c33.137,0,59.999-26.863,59.999-59.999C149.998,402.86,123.136,375.998,89.999,375.998z M89.999,450.997c-8.284,0-15-6.716-15-15
			c0-8.286,6.716-15,15-15c8.284,0,15,6.714,15,15C104.999,444.281,98.283,450.997,89.999,450.997z"/>
	</g>
</g>
<g>
	<g>
		<circle cx="376.996" cy="420.995" r="74.999"/>
	</g>
</g>
<g>
	<g>
		<path d="M425.598,219.451l-51.283-140.93c-1.536-4.228-2.47-8.514-3.025-12.801c-7.606,7.43-15.95,14.009-24.664,20.057
			l40.567,115.956c11.356,5.297,20.645,14.046,26.797,24.89c5.224-0.042,10.446-0.165,15.687,0.225
			C428.339,224.357,426.582,222.158,425.598,219.451z"/>
	</g>
</g>
<g>
</g>
<g>
</g>
<g>
</g>
<g>
</g>
<g>
</g>
<g>
</g>
<g>
</g>
<g>
</g>
<g>
</g>
<g>
</g>
<g>
</g>
<g>
</g>
<g>
</g>
<g>
</g>
<g>
</g>
</svg>
